<mxfile host="app.diagrams.net" modified="2020-08-07T08:55:02.569Z" agent="5.0 (Windows NT 10.0; Win64; x64) AppleWebKit/537.36 (KHTML, like Gecko) Chrome/84.0.4147.105 Safari/537.36" etag="2xvq9EhMisBDFQF-Dvee" version="13.6.0" type="github" pages="6">
  <diagram id="YtGcmlx5MdhKh6ri9F74" name="REITs交易组件图">
    <mxGraphModel dx="4498" dy="1456" grid="1" gridSize="10" guides="1" tooltips="1" connect="1" arrows="1" fold="1" page="1" pageScale="1" pageWidth="827" pageHeight="1169" background="#E6FFCC" math="0" shadow="0">
      <root>
        <mxCell id="0" />
        <mxCell id="1" parent="0" />
        <mxCell id="qfqtDnRgR9i1htIjxdiv-173" value="" style="rounded=0;whiteSpace=wrap;html=1;strokeColor=#6c8ebf;gradientColor=#ffffff;gradientDirection=south;fillColor=#FFFFCC;" vertex="1" parent="1">
          <mxGeometry x="20" y="1260" width="680" height="300" as="geometry" />
        </mxCell>
        <mxCell id="qfqtDnRgR9i1htIjxdiv-29" value="" style="rounded=0;whiteSpace=wrap;html=1;strokeColor=#6c8ebf;gradientColor=#ffffff;fillColor=#FFFFCC;" vertex="1" parent="1">
          <mxGeometry x="440" y="500" width="870" height="630" as="geometry" />
        </mxCell>
        <mxCell id="VK5EltDKN6l3TrfOhJUf-1" value="" style="rounded=0;whiteSpace=wrap;html=1;fillColor=#dae8fc;gradientDirection=south;glass=1;strokeColor=#6c8ebf;gradientColor=#ffffff;" parent="1" vertex="1">
          <mxGeometry x="-1240" y="1940" width="2590" height="1616" as="geometry" />
        </mxCell>
        <mxCell id="qfqtDnRgR9i1htIjxdiv-28" value="" style="rounded=0;whiteSpace=wrap;html=1;strokeColor=#6c8ebf;gradientColor=#ffffff;gradientDirection=south;fillColor=#FFFFCC;" vertex="1" parent="1">
          <mxGeometry x="-230" y="800" width="410" height="330" as="geometry" />
        </mxCell>
        <mxCell id="qfqtDnRgR9i1htIjxdiv-91" value="" style="rounded=0;whiteSpace=wrap;html=1;strokeColor=#6c8ebf;gradientColor=#ffffff;fillColor=#FFFFCC;" vertex="1" parent="1">
          <mxGeometry x="-720" y="800" width="380" height="330" as="geometry" />
        </mxCell>
        <mxCell id="oyumovBON1_XlfnT9GuX-1" value="&lt;font style=&quot;font-size: 36px&quot; color=&quot;#ff8000&quot;&gt;&lt;b&gt;REITs交易组件设计图&lt;/b&gt;&lt;/font&gt;" style="text;html=1;resizable=0;autosize=1;align=center;verticalAlign=middle;points=[];fillColor=none;strokeColor=none;rounded=0;dashed=1;dashPattern=1 2;sketch=0;fontColor=#5C5C5C;" parent="1" vertex="1">
          <mxGeometry x="229" y="20" width="370" height="30" as="geometry" />
        </mxCell>
        <mxCell id="qfqtDnRgR9i1htIjxdiv-15" value="" style="group" vertex="1" connectable="0" parent="1">
          <mxGeometry x="-960" y="120" width="270" height="180" as="geometry" />
        </mxCell>
        <mxCell id="qfqtDnRgR9i1htIjxdiv-11" value="" style="rounded=0;whiteSpace=wrap;html=1;fillColor=#b1ddf0;strokeColor=#10739e;" vertex="1" parent="qfqtDnRgR9i1htIjxdiv-15">
          <mxGeometry width="270" height="180" as="geometry" />
        </mxCell>
        <mxCell id="qfqtDnRgR9i1htIjxdiv-12" value="&lt;font style=&quot;font-size: 24px&quot;&gt;已有功能&lt;/font&gt;" style="rounded=0;whiteSpace=wrap;html=1;fillColor=#dae8fc;strokeColor=#6c8ebf;" vertex="1" parent="qfqtDnRgR9i1htIjxdiv-15">
          <mxGeometry x="80" y="30" width="155" height="60" as="geometry" />
        </mxCell>
        <mxCell id="qfqtDnRgR9i1htIjxdiv-13" value="&lt;font style=&quot;font-size: 24px&quot;&gt;&lt;b&gt;图例&lt;/b&gt;&lt;/font&gt;" style="text;html=1;resizable=0;autosize=1;align=center;verticalAlign=middle;points=[];fillColor=none;strokeColor=none;rounded=0;" vertex="1" parent="qfqtDnRgR9i1htIjxdiv-15">
          <mxGeometry x="5" y="10" width="60" height="20" as="geometry" />
        </mxCell>
        <mxCell id="qfqtDnRgR9i1htIjxdiv-14" value="&lt;font style=&quot;font-size: 24px&quot;&gt;新增修改&lt;/font&gt;" style="rounded=0;whiteSpace=wrap;html=1;fillColor=#f8cecc;strokeColor=#b85450;" vertex="1" parent="qfqtDnRgR9i1htIjxdiv-15">
          <mxGeometry x="80" y="106" width="155" height="60" as="geometry" />
        </mxCell>
        <mxCell id="qfqtDnRgR9i1htIjxdiv-16" value="&lt;b&gt;&lt;font style=&quot;font-size: 24px&quot;&gt;F5/Nginx&lt;/font&gt;&lt;/b&gt;" style="rounded=1;whiteSpace=wrap;html=1;sketch=0;strokeColor=#36393d;fillColor=#cce5ff;" vertex="1" parent="1">
          <mxGeometry x="100" y="340" width="590" height="80" as="geometry" />
        </mxCell>
        <mxCell id="qfqtDnRgR9i1htIjxdiv-23" value="" style="group" vertex="1" connectable="0" parent="1">
          <mxGeometry x="-250" y="120" width="899" height="66" as="geometry" />
        </mxCell>
        <mxCell id="qfqtDnRgR9i1htIjxdiv-6" value="&lt;font style=&quot;font-size: 24px&quot;&gt;基金管理人&lt;br&gt;/财务顾问&lt;/font&gt;" style="pointerEvents=1;shadow=0;dashed=0;html=1;strokeColor=#6c8ebf;labelPosition=center;verticalLabelPosition=bottom;verticalAlign=top;align=center;shape=mxgraph.mscae.intune.user_management;gradientColor=#ffffff;gradientDirection=north;fillColor=#0000FF;" vertex="1" parent="qfqtDnRgR9i1htIjxdiv-23">
          <mxGeometry x="360" width="50" height="66" as="geometry" />
        </mxCell>
        <mxCell id="qfqtDnRgR9i1htIjxdiv-7" value="&lt;font style=&quot;font-size: 24px&quot;&gt;产创业务人员&lt;/font&gt;" style="pointerEvents=1;shadow=0;dashed=0;html=1;strokeColor=#6c8ebf;labelPosition=center;verticalLabelPosition=bottom;verticalAlign=top;align=center;shape=mxgraph.mscae.intune.user_management;gradientColor=#ffffff;gradientDirection=north;fillColor=#0000FF;" vertex="1" parent="qfqtDnRgR9i1htIjxdiv-23">
          <mxGeometry x="614" width="50" height="66" as="geometry" />
        </mxCell>
        <mxCell id="qfqtDnRgR9i1htIjxdiv-8" value="&lt;font style=&quot;font-size: 24px&quot;&gt;网下投资者&lt;/font&gt;" style="pointerEvents=1;shadow=0;dashed=0;html=1;strokeColor=#6c8ebf;labelPosition=center;verticalLabelPosition=bottom;verticalAlign=top;align=center;shape=mxgraph.mscae.intune.user_management;gradientColor=#ffffff;gradientDirection=north;fillColor=#0000FF;" vertex="1" parent="qfqtDnRgR9i1htIjxdiv-23">
          <mxGeometry x="849" width="50" height="66" as="geometry" />
        </mxCell>
        <mxCell id="qfqtDnRgR9i1htIjxdiv-10" value="&lt;font style=&quot;font-size: 24px&quot;&gt;业务交易人员&lt;/font&gt;" style="pointerEvents=1;shadow=0;dashed=0;html=1;strokeColor=#6c8ebf;labelPosition=center;verticalLabelPosition=bottom;verticalAlign=top;align=center;shape=mxgraph.mscae.intune.user_management;gradientColor=#ffffff;gradientDirection=north;fillColor=#0000FF;" vertex="1" parent="qfqtDnRgR9i1htIjxdiv-23">
          <mxGeometry width="50" height="66" as="geometry" />
        </mxCell>
        <mxCell id="qfqtDnRgR9i1htIjxdiv-24" value="" style="group" vertex="1" connectable="0" parent="1">
          <mxGeometry x="2380" y="680" width="808" height="477" as="geometry" />
        </mxCell>
        <mxCell id="qfqtDnRgR9i1htIjxdiv-1" value="" style="rounded=1;whiteSpace=wrap;html=1;fillColor=none;" vertex="1" parent="qfqtDnRgR9i1htIjxdiv-24">
          <mxGeometry x="256" y="141" width="297" height="273" as="geometry" />
        </mxCell>
        <mxCell id="OGBte0PvkTn54QuSE-R2-2" value="&lt;font style=&quot;font-size: 14px&quot;&gt;&lt;b&gt;用户层&lt;br&gt;（Web,H5,APP等）&lt;/b&gt;&lt;/font&gt;" style="rounded=1;whiteSpace=wrap;html=1;sketch=0;strokeColor=#36393d;fillColor=#cce5ff;" parent="qfqtDnRgR9i1htIjxdiv-24" vertex="1">
          <mxGeometry x="197" width="400" height="50" as="geometry" />
        </mxCell>
        <mxCell id="OGBte0PvkTn54QuSE-R2-4" value="&lt;b&gt;&lt;font style=&quot;font-size: 14px&quot;&gt;交易网关服务&lt;br&gt;API网关&lt;/font&gt;&lt;/b&gt;" style="rounded=1;whiteSpace=wrap;html=1;sketch=0;strokeColor=#b85450;fillColor=#f8cecc;" parent="qfqtDnRgR9i1htIjxdiv-24" vertex="1">
          <mxGeometry y="182" width="211" height="60" as="geometry" />
        </mxCell>
        <mxCell id="OGBte0PvkTn54QuSE-R2-11" value="&lt;b&gt;&lt;font style=&quot;font-size: 14px&quot;&gt;REITs后端服务&lt;/font&gt;&lt;/b&gt;" style="rounded=1;whiteSpace=wrap;html=1;sketch=0;strokeColor=#9673a6;fillColor=#e1d5e7;" parent="qfqtDnRgR9i1htIjxdiv-24" vertex="1">
          <mxGeometry y="297" width="200" height="70" as="geometry" />
        </mxCell>
        <mxCell id="OGBte0PvkTn54QuSE-R2-12" value="" style="endArrow=classic;html=1;strokeColor=#457B9D;fillColor=#A8DADC;fontColor=#1D3557;entryX=0.451;entryY=0;entryDx=0;entryDy=0;entryPerimeter=0;" parent="qfqtDnRgR9i1htIjxdiv-24" target="OGBte0PvkTn54QuSE-R2-11" edge="1">
          <mxGeometry width="50" height="50" relative="1" as="geometry">
            <mxPoint x="90" y="243" as="sourcePoint" />
            <mxPoint x="277" y="247" as="targetPoint" />
          </mxGeometry>
        </mxCell>
        <mxCell id="OGBte0PvkTn54QuSE-R2-15" value="&lt;font color=&quot;#000000&quot;&gt;&lt;b&gt;&lt;span style=&quot;font-size: 14px&quot;&gt;数据库&lt;/span&gt;&lt;br&gt;&lt;span style=&quot;font-size: 14px&quot;&gt;（&lt;/span&gt;&lt;font style=&quot;font-size: 10px&quot;&gt;redis、mysql等&lt;/font&gt;&lt;span style=&quot;font-size: 14px&quot;&gt;）&lt;/span&gt;&lt;br&gt;&lt;/b&gt;&lt;/font&gt;" style="shape=cylinder;whiteSpace=wrap;html=1;boundedLbl=1;backgroundOutline=1;rounded=0;sketch=0;fillColor=#cdeb8b;strokeColor=#36393d;" parent="qfqtDnRgR9i1htIjxdiv-24" vertex="1">
          <mxGeometry x="40.5" y="397" width="130" height="80" as="geometry" />
        </mxCell>
        <mxCell id="OGBte0PvkTn54QuSE-R2-16" value="" style="endArrow=classic;html=1;strokeColor=#457B9D;fillColor=#A8DADC;fontColor=#1D3557;entryX=0.329;entryY=0.022;entryDx=0;entryDy=0;entryPerimeter=0;" parent="qfqtDnRgR9i1htIjxdiv-24" target="OGBte0PvkTn54QuSE-R2-15" edge="1">
          <mxGeometry width="50" height="50" relative="1" as="geometry">
            <mxPoint x="83" y="368" as="sourcePoint" />
            <mxPoint x="277" y="347" as="targetPoint" />
          </mxGeometry>
        </mxCell>
        <mxCell id="OGBte0PvkTn54QuSE-R2-24" value="" style="endArrow=classic;html=1;strokeColor=#457B9D;fillColor=#A8DADC;fontColor=#1D3557;entryX=0.693;entryY=1.007;entryDx=0;entryDy=0;entryPerimeter=0;" parent="qfqtDnRgR9i1htIjxdiv-24" target="OGBte0PvkTn54QuSE-R2-4" edge="1">
          <mxGeometry width="50" height="50" relative="1" as="geometry">
            <mxPoint x="146" y="297" as="sourcePoint" />
            <mxPoint x="147" y="240" as="targetPoint" />
          </mxGeometry>
        </mxCell>
        <mxCell id="OGBte0PvkTn54QuSE-R2-26" value="" style="endArrow=classic;html=1;strokeColor=#457B9D;fillColor=#A8DADC;fontColor=#1D3557;entryX=0.635;entryY=1.005;entryDx=0;entryDy=0;entryPerimeter=0;exitX=0.663;exitY=0.011;exitDx=0;exitDy=0;exitPerimeter=0;" parent="qfqtDnRgR9i1htIjxdiv-24" source="OGBte0PvkTn54QuSE-R2-15" target="OGBte0PvkTn54QuSE-R2-11" edge="1">
          <mxGeometry width="50" height="50" relative="1" as="geometry">
            <mxPoint x="127" y="397" as="sourcePoint" />
            <mxPoint x="278.1400000000001" y="346.03" as="targetPoint" />
          </mxGeometry>
        </mxCell>
        <mxCell id="OGBte0PvkTn54QuSE-R2-29" value="响应" style="text;html=1;resizable=0;autosize=1;align=center;verticalAlign=middle;points=[];fillColor=none;strokeColor=none;rounded=0;sketch=0;fontColor=#1D3557;" parent="qfqtDnRgR9i1htIjxdiv-24" vertex="1">
          <mxGeometry x="147" y="257" width="40" height="20" as="geometry" />
        </mxCell>
        <mxCell id="OGBte0PvkTn54QuSE-R2-31" value="&lt;span style=&quot;font-size: 14px&quot;&gt;&lt;b&gt;UFMS&lt;/b&gt;&lt;/span&gt;" style="ellipse;whiteSpace=wrap;html=1;rounded=0;sketch=0;strokeColor=#457B9D;fillColor=#A8DADC;fontColor=#1D3557;" parent="qfqtDnRgR9i1htIjxdiv-24" vertex="1">
          <mxGeometry x="342" y="297" width="140" height="70" as="geometry" />
        </mxCell>
        <mxCell id="OGBte0PvkTn54QuSE-R2-33" value="" style="endArrow=classic;html=1;strokeColor=#457B9D;fillColor=#A8DADC;fontColor=#1D3557;exitX=0.999;exitY=0.311;exitDx=0;exitDy=0;exitPerimeter=0;entryX=0.033;entryY=0.315;entryDx=0;entryDy=0;entryPerimeter=0;" parent="qfqtDnRgR9i1htIjxdiv-24" source="OGBte0PvkTn54QuSE-R2-11" target="OGBte0PvkTn54QuSE-R2-31" edge="1">
          <mxGeometry width="50" height="50" relative="1" as="geometry">
            <mxPoint x="237" y="337" as="sourcePoint" />
            <mxPoint x="347" y="337" as="targetPoint" />
          </mxGeometry>
        </mxCell>
        <mxCell id="OGBte0PvkTn54QuSE-R2-38" value="&lt;b&gt;&lt;span style=&quot;font-size: 14px&quot;&gt;UUMS服务&lt;/span&gt;&lt;br&gt;&lt;span style=&quot;font-size: 14px&quot;&gt;(&lt;/span&gt;&lt;font style=&quot;font-size: 10px&quot;&gt;处理登录，验证token&lt;/font&gt;&lt;span style=&quot;font-size: 14px&quot;&gt;)&lt;/span&gt;&lt;br&gt;&lt;/b&gt;" style="ellipse;whiteSpace=wrap;html=1;rounded=0;sketch=0;strokeColor=#457B9D;fillColor=#A8DADC;fontColor=#1D3557;" parent="qfqtDnRgR9i1htIjxdiv-24" vertex="1">
          <mxGeometry x="347" y="172" width="140" height="70" as="geometry" />
        </mxCell>
        <mxCell id="fUmtlEZdL340nA0cj5ke-1" value="&lt;span style=&quot;font-size: 14px&quot;&gt;&lt;b&gt;业管平台&lt;/b&gt;&lt;/span&gt;" style="rounded=1;whiteSpace=wrap;html=1;sketch=0;strokeColor=#9673a6;fillColor=#e1d5e7;" parent="qfqtDnRgR9i1htIjxdiv-24" vertex="1">
          <mxGeometry x="597" y="297" width="190" height="70" as="geometry" />
        </mxCell>
        <mxCell id="fUmtlEZdL340nA0cj5ke-2" value="&lt;span style=&quot;font-size: 14px&quot;&gt;&lt;b&gt;企业网关&lt;/b&gt;&lt;/span&gt;" style="rounded=1;whiteSpace=wrap;html=1;sketch=0;strokeColor=#b85450;fillColor=#f8cecc;" parent="qfqtDnRgR9i1htIjxdiv-24" vertex="1">
          <mxGeometry x="597" y="182" width="211" height="60" as="geometry" />
        </mxCell>
        <mxCell id="fUmtlEZdL340nA0cj5ke-12" value="" style="endArrow=classic;html=1;strokeColor=#457B9D;fillColor=#A8DADC;fontColor=#1D3557;entryX=0.05;entryY=0.357;entryDx=0;entryDy=0;entryPerimeter=0;" parent="qfqtDnRgR9i1htIjxdiv-24" target="OGBte0PvkTn54QuSE-R2-38" edge="1">
          <mxGeometry width="50" height="50" relative="1" as="geometry">
            <mxPoint x="210" y="197" as="sourcePoint" />
            <mxPoint x="343" y="197" as="targetPoint" />
            <Array as="points">
              <mxPoint x="283" y="197" />
            </Array>
          </mxGeometry>
        </mxCell>
        <mxCell id="fUmtlEZdL340nA0cj5ke-17" value="&lt;b&gt;&lt;font style=&quot;font-size: 14px&quot; color=&quot;#ff9933&quot;&gt;中台服务&lt;/font&gt;&lt;/b&gt;" style="text;html=1;resizable=0;autosize=1;align=center;verticalAlign=middle;points=[];fillColor=none;strokeColor=none;rounded=0;" parent="qfqtDnRgR9i1htIjxdiv-24" vertex="1">
          <mxGeometry x="374" y="116" width="77" height="22" as="geometry" />
        </mxCell>
        <mxCell id="fUmtlEZdL340nA0cj5ke-22" value="" style="endArrow=classic;html=1;strokeColor=#457B9D;fillColor=#A8DADC;fontColor=#1D3557;entryX=0.321;entryY=1.032;entryDx=0;entryDy=0;entryPerimeter=0;exitX=0.462;exitY=-0.04;exitDx=0;exitDy=0;exitPerimeter=0;" parent="qfqtDnRgR9i1htIjxdiv-24" source="OGBte0PvkTn54QuSE-R2-4" target="OGBte0PvkTn54QuSE-R2-2" edge="1">
          <mxGeometry width="50" height="50" relative="1" as="geometry">
            <mxPoint x="158" y="176" as="sourcePoint" />
            <mxPoint x="167" y="107" as="targetPoint" />
            <Array as="points" />
          </mxGeometry>
        </mxCell>
        <mxCell id="fUmtlEZdL340nA0cj5ke-23" value="" style="endArrow=classic;html=1;strokeColor=#457B9D;fillColor=#A8DADC;fontColor=#1D3557;entryX=0.25;entryY=0;entryDx=0;entryDy=0;exitX=0.231;exitY=1;exitDx=0;exitDy=0;exitPerimeter=0;" parent="qfqtDnRgR9i1htIjxdiv-24" source="OGBte0PvkTn54QuSE-R2-2" target="OGBte0PvkTn54QuSE-R2-4" edge="1">
          <mxGeometry width="50" height="50" relative="1" as="geometry">
            <mxPoint x="326" y="79" as="sourcePoint" />
            <mxPoint x="87" y="117" as="targetPoint" />
            <Array as="points" />
          </mxGeometry>
        </mxCell>
        <mxCell id="fUmtlEZdL340nA0cj5ke-28" value="" style="endArrow=classic;html=1;strokeColor=#457B9D;fillColor=#A8DADC;fontColor=#1D3557;entryX=0.75;entryY=1;entryDx=0;entryDy=0;" parent="qfqtDnRgR9i1htIjxdiv-24" source="fUmtlEZdL340nA0cj5ke-2" target="OGBte0PvkTn54QuSE-R2-2" edge="1">
          <mxGeometry width="50" height="50" relative="1" as="geometry">
            <mxPoint x="684" y="176" as="sourcePoint" />
            <mxPoint x="827" y="106" as="targetPoint" />
            <Array as="points" />
          </mxGeometry>
        </mxCell>
        <mxCell id="fUmtlEZdL340nA0cj5ke-32" value="" style="endArrow=classic;html=1;strokeColor=#457B9D;fillColor=#A8DADC;fontColor=#1D3557;entryX=1.003;entryY=0.637;entryDx=0;entryDy=0;entryPerimeter=0;" parent="qfqtDnRgR9i1htIjxdiv-24" target="OGBte0PvkTn54QuSE-R2-4" edge="1">
          <mxGeometry width="50" height="50" relative="1" as="geometry">
            <mxPoint x="351" y="220" as="sourcePoint" />
            <mxPoint x="236.99599999999987" y="220.0000000000001" as="targetPoint" />
            <Array as="points">
              <mxPoint x="283.8399999999999" y="220.08000000000004" />
            </Array>
          </mxGeometry>
        </mxCell>
        <mxCell id="fUmtlEZdL340nA0cj5ke-37" value="请求(HTTP/GRPC)" style="text;html=1;resizable=0;autosize=1;align=center;verticalAlign=middle;points=[];fillColor=none;strokeColor=none;rounded=0;sketch=0;fontColor=#1D3557;" parent="qfqtDnRgR9i1htIjxdiv-24" vertex="1">
          <mxGeometry x="106" y="96" width="120" height="20" as="geometry" />
        </mxCell>
        <mxCell id="fUmtlEZdL340nA0cj5ke-38" value="响应" style="text;html=1;resizable=0;autosize=1;align=center;verticalAlign=middle;points=[];fillColor=none;strokeColor=none;rounded=0;sketch=0;fontColor=#1D3557;" parent="qfqtDnRgR9i1htIjxdiv-24" vertex="1">
          <mxGeometry x="178" y="121" width="40" height="20" as="geometry" />
        </mxCell>
        <mxCell id="fUmtlEZdL340nA0cj5ke-39" value="" style="endArrow=classic;html=1;strokeColor=#457B9D;fillColor=#A8DADC;fontColor=#1D3557;exitX=0.852;exitY=0.983;exitDx=0;exitDy=0;exitPerimeter=0;entryX=0.59;entryY=0.027;entryDx=0;entryDy=0;entryPerimeter=0;" parent="qfqtDnRgR9i1htIjxdiv-24" source="OGBte0PvkTn54QuSE-R2-2" target="fUmtlEZdL340nA0cj5ke-2" edge="1">
          <mxGeometry width="50" height="50" relative="1" as="geometry">
            <mxPoint x="748" y="117" as="sourcePoint" />
            <mxPoint x="838" y="117" as="targetPoint" />
            <Array as="points" />
          </mxGeometry>
        </mxCell>
        <mxCell id="fUmtlEZdL340nA0cj5ke-43" value="请求（HTTP）" style="text;html=1;resizable=0;autosize=1;align=center;verticalAlign=middle;points=[];fillColor=none;strokeColor=none;rounded=0;sketch=0;fontColor=#1D3557;" parent="qfqtDnRgR9i1htIjxdiv-24" vertex="1">
          <mxGeometry x="585" y="76" width="90" height="20" as="geometry" />
        </mxCell>
        <mxCell id="fUmtlEZdL340nA0cj5ke-44" value="响应" style="text;html=1;resizable=0;autosize=1;align=center;verticalAlign=middle;points=[];fillColor=none;strokeColor=none;rounded=0;sketch=0;fontColor=#1D3557;" parent="qfqtDnRgR9i1htIjxdiv-24" vertex="1">
          <mxGeometry x="597" y="121" width="40" height="20" as="geometry" />
        </mxCell>
        <mxCell id="fUmtlEZdL340nA0cj5ke-46" value="Token" style="text;html=1;resizable=0;autosize=1;align=center;verticalAlign=middle;points=[];fillColor=none;strokeColor=none;rounded=0;sketch=0;fontColor=#1D3557;" parent="qfqtDnRgR9i1htIjxdiv-24" vertex="1">
          <mxGeometry x="275" y="181" width="44" height="22" as="geometry" />
        </mxCell>
        <mxCell id="fUmtlEZdL340nA0cj5ke-49" value="" style="endArrow=classic;html=1;strokeColor=#457B9D;fillColor=#A8DADC;fontColor=#1D3557;entryX=-0.005;entryY=0.637;entryDx=0;entryDy=0;entryPerimeter=0;" parent="qfqtDnRgR9i1htIjxdiv-24" target="fUmtlEZdL340nA0cj5ke-2" edge="1">
          <mxGeometry width="50" height="50" relative="1" as="geometry">
            <mxPoint x="482" y="220.01" as="sourcePoint" />
            <mxPoint x="626.0000000000002" y="220.0000000000001" as="targetPoint" />
            <Array as="points">
              <mxPoint x="555" y="220.01" />
            </Array>
          </mxGeometry>
        </mxCell>
        <mxCell id="fUmtlEZdL340nA0cj5ke-50" value="" style="endArrow=classic;html=1;strokeColor=#457B9D;fillColor=#A8DADC;fontColor=#1D3557;entryX=0.951;entryY=0.287;entryDx=0;entryDy=0;entryPerimeter=0;" parent="qfqtDnRgR9i1htIjxdiv-24" target="OGBte0PvkTn54QuSE-R2-38" edge="1">
          <mxGeometry width="50" height="50" relative="1" as="geometry">
            <mxPoint x="595.9450000000002" y="191.97000000000003" as="sourcePoint" />
            <mxPoint x="482" y="192" as="targetPoint" />
            <Array as="points">
              <mxPoint x="555" y="191.76" />
            </Array>
          </mxGeometry>
        </mxCell>
        <mxCell id="fUmtlEZdL340nA0cj5ke-51" value="Token" style="text;html=1;resizable=0;autosize=1;align=center;verticalAlign=middle;points=[];fillColor=none;strokeColor=none;rounded=0;sketch=0;fontColor=#1D3557;" parent="qfqtDnRgR9i1htIjxdiv-24" vertex="1">
          <mxGeometry x="497" y="172" width="44" height="22" as="geometry" />
        </mxCell>
        <mxCell id="fUmtlEZdL340nA0cj5ke-52" value="" style="endArrow=classic;html=1;strokeColor=#457B9D;fillColor=#A8DADC;fontColor=#1D3557;exitX=0.999;exitY=0.311;exitDx=0;exitDy=0;exitPerimeter=0;entryX=0.033;entryY=0.315;entryDx=0;entryDy=0;entryPerimeter=0;" parent="qfqtDnRgR9i1htIjxdiv-24" edge="1">
          <mxGeometry width="50" height="50" relative="1" as="geometry">
            <mxPoint x="342" y="341.28" as="sourcePoint" />
            <mxPoint x="195.18000000000006" y="341" as="targetPoint" />
          </mxGeometry>
        </mxCell>
        <mxCell id="fUmtlEZdL340nA0cj5ke-53" value="" style="endArrow=classic;html=1;strokeColor=#457B9D;fillColor=#A8DADC;fontColor=#1D3557;entryX=0.033;entryY=0.315;entryDx=0;entryDy=0;entryPerimeter=0;exitX=0.984;exitY=0.633;exitDx=0;exitDy=0;exitPerimeter=0;" parent="qfqtDnRgR9i1htIjxdiv-24" source="OGBte0PvkTn54QuSE-R2-31" edge="1">
          <mxGeometry width="50" height="50" relative="1" as="geometry">
            <mxPoint x="475" y="341" as="sourcePoint" />
            <mxPoint x="597.8199999999999" y="341.28" as="targetPoint" />
          </mxGeometry>
        </mxCell>
        <mxCell id="fUmtlEZdL340nA0cj5ke-54" value="" style="endArrow=classic;html=1;strokeColor=#457B9D;fillColor=#A8DADC;fontColor=#1D3557;entryX=0.033;entryY=0.315;entryDx=0;entryDy=0;entryPerimeter=0;" parent="qfqtDnRgR9i1htIjxdiv-24" edge="1">
          <mxGeometry width="50" height="50" relative="1" as="geometry">
            <mxPoint x="596" y="319" as="sourcePoint" />
            <mxPoint x="475" y="319" as="targetPoint" />
          </mxGeometry>
        </mxCell>
        <mxCell id="fUmtlEZdL340nA0cj5ke-56" value="" style="endArrow=classic;html=1;strokeColor=#457B9D;fillColor=#A8DADC;fontColor=#1D3557;entryX=0.451;entryY=0;entryDx=0;entryDy=0;entryPerimeter=0;" parent="qfqtDnRgR9i1htIjxdiv-24" edge="1">
          <mxGeometry width="50" height="50" relative="1" as="geometry">
            <mxPoint x="717.1999999999998" y="297" as="sourcePoint" />
            <mxPoint x="717" y="243" as="targetPoint" />
          </mxGeometry>
        </mxCell>
        <mxCell id="fUmtlEZdL340nA0cj5ke-57" value="" style="endArrow=classic;html=1;strokeColor=#457B9D;fillColor=#A8DADC;fontColor=#1D3557;entryX=0.451;entryY=0;entryDx=0;entryDy=0;entryPerimeter=0;" parent="qfqtDnRgR9i1htIjxdiv-24" edge="1">
          <mxGeometry width="50" height="50" relative="1" as="geometry">
            <mxPoint x="673" y="243" as="sourcePoint" />
            <mxPoint x="673.1999999999998" y="297" as="targetPoint" />
          </mxGeometry>
        </mxCell>
        <mxCell id="fUmtlEZdL340nA0cj5ke-59" value="响应" style="text;html=1;resizable=0;autosize=1;align=center;verticalAlign=middle;points=[];fillColor=none;strokeColor=none;rounded=0;sketch=0;fontColor=#1D3557;" parent="qfqtDnRgR9i1htIjxdiv-24" vertex="1">
          <mxGeometry x="717" y="255" width="44" height="22" as="geometry" />
        </mxCell>
        <mxCell id="NYVzm88oB_qArTAKALnM-1" value="请求（FTP）" style="text;html=1;resizable=0;autosize=1;align=center;verticalAlign=middle;points=[];fillColor=none;strokeColor=none;rounded=0;sketch=0;fontColor=#1D3557;" parent="qfqtDnRgR9i1htIjxdiv-24" vertex="1">
          <mxGeometry x="241" y="297" width="90" height="20" as="geometry" />
        </mxCell>
        <mxCell id="NYVzm88oB_qArTAKALnM-3" value="请求（FTP）" style="text;html=1;resizable=0;autosize=1;align=center;verticalAlign=middle;points=[];fillColor=none;strokeColor=none;rounded=0;sketch=0;fontColor=#1D3557;" parent="qfqtDnRgR9i1htIjxdiv-24" vertex="1">
          <mxGeometry x="497" y="297" width="90" height="20" as="geometry" />
        </mxCell>
        <mxCell id="NYVzm88oB_qArTAKALnM-5" value="请求（HTTP）" style="text;html=1;resizable=0;autosize=1;align=center;verticalAlign=middle;points=[];fillColor=none;strokeColor=none;rounded=0;sketch=0;fontColor=#1D3557;" parent="qfqtDnRgR9i1htIjxdiv-24" vertex="1">
          <mxGeometry x="611" y="255" width="90" height="20" as="geometry" />
        </mxCell>
        <mxCell id="NYVzm88oB_qArTAKALnM-6" value="请求(GRPC)" style="text;html=1;resizable=0;autosize=1;align=center;verticalAlign=middle;points=[];fillColor=none;strokeColor=none;rounded=0;sketch=0;fontColor=#1D3557;" parent="qfqtDnRgR9i1htIjxdiv-24" vertex="1">
          <mxGeometry x="41" y="256" width="80" height="20" as="geometry" />
        </mxCell>
        <mxCell id="qfqtDnRgR9i1htIjxdiv-30" value="" style="edgeStyle=orthogonalEdgeStyle;rounded=0;orthogonalLoop=1;jettySize=auto;html=1;entryX=0.5;entryY=0;entryDx=0;entryDy=0;" edge="1" parent="1" source="qfqtDnRgR9i1htIjxdiv-25" target="qfqtDnRgR9i1htIjxdiv-35">
          <mxGeometry relative="1" as="geometry">
            <Array as="points">
              <mxPoint x="200" y="735" />
              <mxPoint x="80" y="735" />
            </Array>
          </mxGeometry>
        </mxCell>
        <mxCell id="qfqtDnRgR9i1htIjxdiv-25" value="&lt;b&gt;&lt;font style=&quot;font-size: 24px&quot;&gt;企业网关&lt;/font&gt;&lt;/b&gt;" style="rounded=1;whiteSpace=wrap;html=1;sketch=0;strokeColor=#36393d;fillColor=#cce5ff;" vertex="1" parent="1">
          <mxGeometry x="150" y="520" width="180" height="110" as="geometry" />
        </mxCell>
        <mxCell id="qfqtDnRgR9i1htIjxdiv-26" value="&lt;span style=&quot;font-size: 24px&quot;&gt;&lt;b&gt;交易网关&lt;/b&gt;&lt;/span&gt;" style="rounded=1;whiteSpace=wrap;html=1;sketch=0;strokeColor=#b85450;fillColor=#f8cecc;" vertex="1" parent="1">
          <mxGeometry x="540" y="570" width="180" height="110" as="geometry" />
        </mxCell>
        <mxCell id="qfqtDnRgR9i1htIjxdiv-32" value="&lt;font style=&quot;font-size: 24px&quot; color=&quot;#ff9933&quot;&gt;业管平台&lt;/font&gt;" style="text;html=1;resizable=0;autosize=1;align=center;verticalAlign=middle;points=[];fillColor=none;strokeColor=none;rounded=0;" vertex="1" parent="1">
          <mxGeometry x="80" y="770" width="110" height="20" as="geometry" />
        </mxCell>
        <mxCell id="qfqtDnRgR9i1htIjxdiv-33" value="&lt;font style=&quot;font-size: 24px&quot; color=&quot;#ff9933&quot;&gt;互联网交易平台&lt;/font&gt;" style="text;html=1;resizable=0;autosize=1;align=center;verticalAlign=middle;points=[];fillColor=none;strokeColor=none;rounded=0;" vertex="1" parent="1">
          <mxGeometry x="670" y="520" width="180" height="20" as="geometry" />
        </mxCell>
        <mxCell id="qfqtDnRgR9i1htIjxdiv-34" value="&lt;b&gt;&lt;font style=&quot;font-size: 24px&quot;&gt;web端&lt;/font&gt;&lt;/b&gt;" style="rounded=1;whiteSpace=wrap;html=1;sketch=0;strokeColor=#36393d;fillColor=#F8CECC;" vertex="1" parent="1">
          <mxGeometry x="-200" y="815" width="160" height="70" as="geometry" />
        </mxCell>
        <mxCell id="qfqtDnRgR9i1htIjxdiv-35" value="&lt;b&gt;&lt;font style=&quot;font-size: 24px&quot;&gt;业管网关&lt;/font&gt;&lt;/b&gt;" style="rounded=1;whiteSpace=wrap;html=1;sketch=0;strokeColor=#36393d;fillColor=#cce5ff;" vertex="1" parent="1">
          <mxGeometry y="815" width="160" height="70" as="geometry" />
        </mxCell>
        <mxCell id="qfqtDnRgR9i1htIjxdiv-45" value="" style="endArrow=classic;html=1;entryX=0.5;entryY=0;entryDx=0;entryDy=0;exitX=0.441;exitY=1.02;exitDx=0;exitDy=0;exitPerimeter=0;" edge="1" parent="1" source="qfqtDnRgR9i1htIjxdiv-16" target="qfqtDnRgR9i1htIjxdiv-25">
          <mxGeometry width="50" height="50" relative="1" as="geometry">
            <mxPoint x="300" y="440" as="sourcePoint" />
            <mxPoint x="350" y="390" as="targetPoint" />
          </mxGeometry>
        </mxCell>
        <mxCell id="qfqtDnRgR9i1htIjxdiv-46" value="" style="endArrow=classic;html=1;entryX=0.5;entryY=0;entryDx=0;entryDy=0;exitX=0.541;exitY=1.029;exitDx=0;exitDy=0;exitPerimeter=0;" edge="1" parent="1" source="qfqtDnRgR9i1htIjxdiv-16" target="qfqtDnRgR9i1htIjxdiv-26">
          <mxGeometry width="50" height="50" relative="1" as="geometry">
            <mxPoint x="430" y="430" as="sourcePoint" />
            <mxPoint x="353" y="530" as="targetPoint" />
          </mxGeometry>
        </mxCell>
        <mxCell id="qfqtDnRgR9i1htIjxdiv-48" value="&lt;b&gt;&lt;font style=&quot;font-size: 24px&quot;&gt;web端&lt;/font&gt;&lt;/b&gt;" style="rounded=1;whiteSpace=wrap;html=1;sketch=0;strokeColor=#b85450;fillColor=#f8cecc;" vertex="1" parent="1">
          <mxGeometry x="840" y="781.25" width="160" height="70" as="geometry" />
        </mxCell>
        <mxCell id="qfqtDnRgR9i1htIjxdiv-49" value="&lt;span style=&quot;font-size: 24px&quot;&gt;&lt;b&gt;互联网交易&lt;br&gt;平台聚合网关&lt;/b&gt;&lt;/span&gt;" style="rounded=1;whiteSpace=wrap;html=1;sketch=0;strokeColor=#36393d;fillColor=#cce5ff;" vertex="1" parent="1">
          <mxGeometry x="580" y="790" width="160" height="70" as="geometry" />
        </mxCell>
        <mxCell id="qfqtDnRgR9i1htIjxdiv-50" value="" style="group;" vertex="1" connectable="0" parent="1">
          <mxGeometry x="-210" y="960" width="360" height="160" as="geometry" />
        </mxCell>
        <mxCell id="qfqtDnRgR9i1htIjxdiv-38" value="" style="rounded=0;whiteSpace=wrap;html=1;strokeColor=#6c8ebf;fillColor=#dae8fc;" vertex="1" parent="qfqtDnRgR9i1htIjxdiv-50">
          <mxGeometry y="20" width="360" height="140" as="geometry" />
        </mxCell>
        <mxCell id="qfqtDnRgR9i1htIjxdiv-40" value="&lt;b&gt;&lt;font style=&quot;font-size: 24px&quot;&gt;REITs&lt;br&gt;管理服务&lt;/font&gt;&lt;/b&gt;" style="rounded=1;whiteSpace=wrap;html=1;sketch=0;strokeColor=#36393d;fillColor=#F8CECC;" vertex="1" parent="qfqtDnRgR9i1htIjxdiv-50">
          <mxGeometry x="10" y="60" width="150" height="76.15" as="geometry" />
        </mxCell>
        <mxCell id="qfqtDnRgR9i1htIjxdiv-42" value="&lt;b&gt;&lt;font style=&quot;font-size: 24px&quot;&gt;新基金&lt;br&gt;管理服务&lt;br&gt;&lt;/font&gt;&lt;/b&gt;" style="rounded=1;whiteSpace=wrap;html=1;sketch=0;strokeColor=#36393d;fillColor=#F8CECC;" vertex="1" parent="qfqtDnRgR9i1htIjxdiv-50">
          <mxGeometry x="190" y="60.76615384615385" width="150" height="75.38461538461539" as="geometry" />
        </mxCell>
        <mxCell id="qfqtDnRgR9i1htIjxdiv-39" value="&lt;font color=&quot;#ff9933&quot;&gt;&lt;span style=&quot;font-size: 24px&quot;&gt;业管平台子模块&lt;/span&gt;&lt;/font&gt;" style="text;html=1;resizable=0;autosize=1;align=center;verticalAlign=middle;points=[];fillColor=none;strokeColor=none;rounded=0;" vertex="1" parent="qfqtDnRgR9i1htIjxdiv-50">
          <mxGeometry y="30" width="180" height="20" as="geometry" />
        </mxCell>
        <mxCell id="qfqtDnRgR9i1htIjxdiv-51" value="" style="group" vertex="1" connectable="0" parent="1">
          <mxGeometry x="470" y="960" width="642.857142857143" height="150" as="geometry" />
        </mxCell>
        <mxCell id="qfqtDnRgR9i1htIjxdiv-52" value="" style="rounded=0;whiteSpace=wrap;html=1;fillColor=#dae8fc;strokeColor=#6c8ebf;" vertex="1" parent="qfqtDnRgR9i1htIjxdiv-51">
          <mxGeometry width="570" height="150" as="geometry" />
        </mxCell>
        <mxCell id="qfqtDnRgR9i1htIjxdiv-53" value="&lt;b&gt;&lt;font style=&quot;font-size: 24px&quot;&gt;REITs&lt;br&gt;询价认购&lt;br&gt;&lt;/font&gt;&lt;/b&gt;" style="rounded=1;whiteSpace=wrap;html=1;sketch=0;strokeColor=#b85450;fillColor=#f8cecc;" vertex="1" parent="qfqtDnRgR9i1htIjxdiv-51">
          <mxGeometry x="13.43" y="40" width="166.57" height="100" as="geometry" />
        </mxCell>
        <mxCell id="qfqtDnRgR9i1htIjxdiv-57" value="&lt;span style=&quot;font-size: 24px&quot;&gt;&lt;b&gt;司法执行&lt;/b&gt;&lt;/span&gt;" style="rounded=1;whiteSpace=wrap;html=1;sketch=0;strokeColor=#36393d;fillColor=#cce5ff;" vertex="1" parent="qfqtDnRgR9i1htIjxdiv-51">
          <mxGeometry x="200" y="40" width="180" height="100" as="geometry" />
        </mxCell>
        <mxCell id="qfqtDnRgR9i1htIjxdiv-58" value="&lt;span style=&quot;font-size: 24px&quot;&gt;&lt;b&gt;非公开转让&lt;/b&gt;&lt;/span&gt;" style="rounded=1;whiteSpace=wrap;html=1;sketch=0;strokeColor=#36393d;fillColor=#cce5ff;" vertex="1" parent="qfqtDnRgR9i1htIjxdiv-51">
          <mxGeometry x="400" y="40" width="148.57" height="100" as="geometry" />
        </mxCell>
        <mxCell id="qfqtDnRgR9i1htIjxdiv-55" value="&lt;span style=&quot;color: rgb(255 , 153 , 51) ; font-size: 24px&quot;&gt;交易微服务&lt;/span&gt;" style="text;html=1;resizable=0;autosize=1;align=center;verticalAlign=middle;points=[];fillColor=none;strokeColor=none;rounded=0;" vertex="1" parent="qfqtDnRgR9i1htIjxdiv-51">
          <mxGeometry x="26.720000000000027" y="10" width="140" height="20" as="geometry" />
        </mxCell>
        <mxCell id="qfqtDnRgR9i1htIjxdiv-56" value="" style="edgeStyle=orthogonalEdgeStyle;rounded=0;orthogonalLoop=1;jettySize=auto;html=1;" edge="1" parent="1">
          <mxGeometry relative="1" as="geometry">
            <mxPoint x="700" y="380" as="sourcePoint" />
            <mxPoint x="930" y="815" as="targetPoint" />
            <Array as="points">
              <mxPoint x="930" y="380" />
              <mxPoint x="930" y="815" />
            </Array>
          </mxGeometry>
        </mxCell>
        <mxCell id="qfqtDnRgR9i1htIjxdiv-59" value="" style="rounded=0;whiteSpace=wrap;html=1;gradientColor=#ffffff;fillColor=none;" vertex="1" parent="1">
          <mxGeometry x="1080" y="740" width="230" height="380" as="geometry" />
        </mxCell>
        <mxCell id="qfqtDnRgR9i1htIjxdiv-60" value="&lt;font style=&quot;font-size: 24px&quot; color=&quot;#ff9933&quot;&gt;基础服务&lt;/font&gt;" style="text;html=1;resizable=0;autosize=1;align=center;verticalAlign=middle;points=[];fillColor=none;strokeColor=none;rounded=0;" vertex="1" parent="1">
          <mxGeometry x="1080.0000000000002" y="760" width="110" height="20" as="geometry" />
        </mxCell>
        <mxCell id="qfqtDnRgR9i1htIjxdiv-61" value="&lt;b&gt;&lt;font style=&quot;font-size: 24px&quot;&gt;用户服务&lt;/font&gt;&lt;/b&gt;" style="rounded=1;whiteSpace=wrap;html=1;sketch=0;strokeColor=#36393d;fillColor=#cce5ff;" vertex="1" parent="1">
          <mxGeometry x="1110" y="810" width="160" height="65" as="geometry" />
        </mxCell>
        <mxCell id="qfqtDnRgR9i1htIjxdiv-67" value="&lt;b&gt;&lt;font style=&quot;font-size: 24px&quot;&gt;认证服务&lt;/font&gt;&lt;/b&gt;" style="rounded=1;whiteSpace=wrap;html=1;sketch=0;strokeColor=#36393d;fillColor=#cce5ff;" vertex="1" parent="1">
          <mxGeometry x="1115" y="910" width="160" height="65" as="geometry" />
        </mxCell>
        <mxCell id="qfqtDnRgR9i1htIjxdiv-68" value="&lt;b&gt;&lt;font style=&quot;font-size: 24px&quot;&gt;批处理&lt;/font&gt;&lt;/b&gt;" style="rounded=1;whiteSpace=wrap;html=1;sketch=0;strokeColor=#36393d;fillColor=#cce5ff;" vertex="1" parent="1">
          <mxGeometry x="1120" y="1011.25" width="160" height="65" as="geometry" />
        </mxCell>
        <mxCell id="qfqtDnRgR9i1htIjxdiv-69" style="edgeStyle=orthogonalEdgeStyle;rounded=0;orthogonalLoop=1;jettySize=auto;html=1;exitX=0.5;exitY=1;exitDx=0;exitDy=0;" edge="1" parent="1">
          <mxGeometry relative="1" as="geometry">
            <mxPoint x="849.9999999999995" y="1010" as="sourcePoint" />
            <mxPoint x="849.9999999999995" y="1010" as="targetPoint" />
          </mxGeometry>
        </mxCell>
        <mxCell id="qfqtDnRgR9i1htIjxdiv-90" value="" style="endArrow=classic;html=1;entryX=0.491;entryY=-0.024;entryDx=0;entryDy=0;entryPerimeter=0;" edge="1" parent="1" source="qfqtDnRgR9i1htIjxdiv-7" target="qfqtDnRgR9i1htIjxdiv-16">
          <mxGeometry width="50" height="50" relative="1" as="geometry">
            <mxPoint x="385" y="245" as="sourcePoint" />
            <mxPoint x="389" y="330" as="targetPoint" />
          </mxGeometry>
        </mxCell>
        <mxCell id="qfqtDnRgR9i1htIjxdiv-94" style="edgeStyle=orthogonalEdgeStyle;rounded=0;orthogonalLoop=1;jettySize=auto;html=1;" edge="1" parent="1" source="qfqtDnRgR9i1htIjxdiv-10">
          <mxGeometry relative="1" as="geometry">
            <mxPoint x="-228" y="190" as="sourcePoint" />
            <mxPoint x="-520" y="782" as="targetPoint" />
            <Array as="points">
              <mxPoint x="-228" y="460" />
              <mxPoint x="-520" y="460" />
            </Array>
          </mxGeometry>
        </mxCell>
        <mxCell id="qfqtDnRgR9i1htIjxdiv-96" value="&lt;font style=&quot;font-size: 24px&quot; color=&quot;#ff9933&quot;&gt;交易后台&lt;/font&gt;" style="text;html=1;resizable=0;autosize=1;align=center;verticalAlign=middle;points=[];fillColor=none;strokeColor=none;rounded=0;" vertex="1" parent="1">
          <mxGeometry x="-690" y="760" width="110" height="20" as="geometry" />
        </mxCell>
        <mxCell id="qfqtDnRgR9i1htIjxdiv-97" value="&lt;b&gt;&lt;font style=&quot;font-size: 24px&quot;&gt;竞价场务端&lt;/font&gt;&lt;/b&gt;" style="rounded=1;whiteSpace=wrap;html=1;sketch=0;strokeColor=#b85450;fillColor=#f8cecc;" vertex="1" parent="1">
          <mxGeometry x="-700" y="831.25" width="160" height="70" as="geometry" />
        </mxCell>
        <mxCell id="qfqtDnRgR9i1htIjxdiv-98" value="&lt;b&gt;&lt;font style=&quot;font-size: 24px&quot;&gt;综业场务端&lt;/font&gt;&lt;/b&gt;" style="rounded=1;whiteSpace=wrap;html=1;sketch=0;strokeColor=#b85450;fillColor=#f8cecc;" vertex="1" parent="1">
          <mxGeometry x="-520" y="831.25" width="160" height="70" as="geometry" />
        </mxCell>
        <mxCell id="qfqtDnRgR9i1htIjxdiv-99" value="&lt;b&gt;&lt;font style=&quot;font-size: 24px&quot;&gt;综业交易&lt;/font&gt;&lt;/b&gt;" style="rounded=1;whiteSpace=wrap;html=1;sketch=0;strokeColor=#b85450;fillColor=#f8cecc;" vertex="1" parent="1">
          <mxGeometry x="-520" y="985" width="160" height="70" as="geometry" />
        </mxCell>
        <mxCell id="qfqtDnRgR9i1htIjxdiv-106" style="edgeStyle=orthogonalEdgeStyle;rounded=0;orthogonalLoop=1;jettySize=auto;html=1;" edge="1" parent="1">
          <mxGeometry relative="1" as="geometry">
            <mxPoint x="-820" y="1033.57" as="targetPoint" />
            <mxPoint x="-740" y="1033.57" as="sourcePoint" />
          </mxGeometry>
        </mxCell>
        <mxCell id="qfqtDnRgR9i1htIjxdiv-100" value="&lt;b&gt;&lt;font style=&quot;font-size: 24px&quot;&gt;竞价交易&lt;/font&gt;&lt;/b&gt;" style="rounded=1;whiteSpace=wrap;html=1;sketch=0;strokeColor=#b85450;fillColor=#f8cecc;" vertex="1" parent="1">
          <mxGeometry x="-700" y="995" width="160" height="70" as="geometry" />
        </mxCell>
        <mxCell id="qfqtDnRgR9i1htIjxdiv-105" style="edgeStyle=orthogonalEdgeStyle;rounded=0;orthogonalLoop=1;jettySize=auto;html=1;" edge="1" parent="1">
          <mxGeometry relative="1" as="geometry">
            <mxPoint x="-730" y="860" as="targetPoint" />
            <mxPoint x="-827" y="860" as="sourcePoint" />
          </mxGeometry>
        </mxCell>
        <mxCell id="qfqtDnRgR9i1htIjxdiv-104" value="" style="edgeStyle=orthogonalEdgeStyle;rounded=0;orthogonalLoop=1;jettySize=auto;html=1;exitX=0;exitY=0.465;exitDx=0;exitDy=0;exitPerimeter=0;" edge="1" parent="1" source="qfqtDnRgR9i1htIjxdiv-16" target="qfqtDnRgR9i1htIjxdiv-34">
          <mxGeometry relative="1" as="geometry">
            <mxPoint x="-210" y="391.32" as="sourcePoint" />
            <mxPoint x="50" y="800.0000000000003" as="targetPoint" />
            <Array as="points">
              <mxPoint x="-100" y="377" />
            </Array>
          </mxGeometry>
        </mxCell>
        <mxCell id="qfqtDnRgR9i1htIjxdiv-107" value="&lt;font style=&quot;font-size: 24px&quot;&gt;静态资源&lt;/font&gt;" style="edgeLabel;html=1;align=center;verticalAlign=middle;resizable=0;points=[];" vertex="1" connectable="0" parent="qfqtDnRgR9i1htIjxdiv-104">
          <mxGeometry x="0.0073" y="4" relative="1" as="geometry">
            <mxPoint as="offset" />
          </mxGeometry>
        </mxCell>
        <mxCell id="qfqtDnRgR9i1htIjxdiv-108" value="&lt;font style=&quot;font-size: 24px&quot;&gt;静态资源&lt;/font&gt;" style="edgeLabel;html=1;align=center;verticalAlign=middle;resizable=0;points=[];" vertex="1" connectable="0" parent="1">
          <mxGeometry x="50.000000000000455" y="575.004253061235" as="geometry">
            <mxPoint x="911" y="-5" as="offset" />
          </mxGeometry>
        </mxCell>
        <mxCell id="qfqtDnRgR9i1htIjxdiv-109" value="&lt;span style=&quot;font-size: 24px&quot;&gt;请求(&lt;/span&gt;&lt;span style=&quot;font-size: 24px&quot;&gt;REST&lt;/span&gt;&lt;span style=&quot;font-size: 24px&quot;&gt;)&lt;/span&gt;" style="edgeLabel;html=1;align=center;verticalAlign=middle;resizable=0;points=[];" vertex="1" connectable="0" parent="1">
          <mxGeometry x="-619.9999999999995" y="470.004253061235" as="geometry">
            <mxPoint x="911" y="-5" as="offset" />
          </mxGeometry>
        </mxCell>
        <mxCell id="qfqtDnRgR9i1htIjxdiv-110" value="&lt;span style=&quot;font-size: 24px&quot;&gt;请求(REST)&lt;/span&gt;" style="edgeLabel;html=1;align=center;verticalAlign=middle;resizable=0;points=[];" vertex="1" connectable="0" parent="1">
          <mxGeometry x="-399.99999999999955" y="470.004253061235" as="geometry">
            <mxPoint x="911" y="-5" as="offset" />
          </mxGeometry>
        </mxCell>
        <mxCell id="qfqtDnRgR9i1htIjxdiv-111" value="" style="endArrow=classic;html=1;entryX=0.5;entryY=0;entryDx=0;entryDy=0;exitX=0.5;exitY=1;exitDx=0;exitDy=0;" edge="1" parent="1" source="qfqtDnRgR9i1htIjxdiv-97" target="qfqtDnRgR9i1htIjxdiv-100">
          <mxGeometry width="50" height="50" relative="1" as="geometry">
            <mxPoint x="-360" y="880" as="sourcePoint" />
            <mxPoint x="-310" y="830" as="targetPoint" />
          </mxGeometry>
        </mxCell>
        <mxCell id="qfqtDnRgR9i1htIjxdiv-112" value="" style="endArrow=classic;html=1;entryX=0.563;entryY=0.036;entryDx=0;entryDy=0;exitX=0.56;exitY=1.023;exitDx=0;exitDy=0;entryPerimeter=0;exitPerimeter=0;" edge="1" parent="1" source="qfqtDnRgR9i1htIjxdiv-98" target="qfqtDnRgR9i1htIjxdiv-99">
          <mxGeometry width="50" height="50" relative="1" as="geometry">
            <mxPoint x="-360" y="892.5" as="sourcePoint" />
            <mxPoint x="-360" y="960" as="targetPoint" />
          </mxGeometry>
        </mxCell>
        <mxCell id="qfqtDnRgR9i1htIjxdiv-116" value="" style="endArrow=classic;html=1;exitX=0.5;exitY=1;exitDx=0;exitDy=0;" edge="1" parent="1" source="qfqtDnRgR9i1htIjxdiv-99">
          <mxGeometry width="50" height="50" relative="1" as="geometry">
            <mxPoint x="-370.59000000000003" y="1030" as="sourcePoint" />
            <mxPoint x="-440" y="1300" as="targetPoint" />
          </mxGeometry>
        </mxCell>
        <mxCell id="qfqtDnRgR9i1htIjxdiv-119" value="&lt;font style=&quot;font-size: 24px&quot;&gt;基金参数公告文件&lt;/font&gt;" style="edgeLabel;html=1;align=center;verticalAlign=middle;resizable=0;points=[];" vertex="1" connectable="0" parent="qfqtDnRgR9i1htIjxdiv-116">
          <mxGeometry x="0.229" y="4" relative="1" as="geometry">
            <mxPoint x="23" y="5" as="offset" />
          </mxGeometry>
        </mxCell>
        <mxCell id="qfqtDnRgR9i1htIjxdiv-162" value="&lt;span style=&quot;font-size: 18px&quot;&gt;(FTP&lt;/span&gt;&lt;span style=&quot;font-size: 18px&quot;&gt;)&lt;/span&gt;" style="edgeLabel;html=1;align=center;verticalAlign=middle;resizable=0;points=[];" vertex="1" connectable="0" parent="qfqtDnRgR9i1htIjxdiv-116">
          <mxGeometry x="-0.1464" y="1" relative="1" as="geometry">
            <mxPoint as="offset" />
          </mxGeometry>
        </mxCell>
        <mxCell id="qfqtDnRgR9i1htIjxdiv-117" value="" style="endArrow=classic;html=1;exitX=0.563;exitY=1.002;exitDx=0;exitDy=0;exitPerimeter=0;" edge="1" parent="1" source="qfqtDnRgR9i1htIjxdiv-100">
          <mxGeometry width="50" height="50" relative="1" as="geometry">
            <mxPoint x="-560" y="1030" as="sourcePoint" />
            <mxPoint x="-610" y="1300" as="targetPoint" />
          </mxGeometry>
        </mxCell>
        <mxCell id="qfqtDnRgR9i1htIjxdiv-118" value="&lt;font style=&quot;font-size: 24px&quot;&gt;CPXX&lt;br&gt;产品基础信息文件&lt;br&gt;&lt;/font&gt;" style="edgeLabel;html=1;align=center;verticalAlign=middle;resizable=0;points=[];" vertex="1" connectable="0" parent="qfqtDnRgR9i1htIjxdiv-117">
          <mxGeometry x="0.0861" y="-5" relative="1" as="geometry">
            <mxPoint x="-5.04" y="17.720000000000002" as="offset" />
          </mxGeometry>
        </mxCell>
        <mxCell id="qfqtDnRgR9i1htIjxdiv-121" value="&lt;font style=&quot;font-size: 24px&quot;&gt;存储网关&lt;/font&gt;" style="shape=cylinder2;whiteSpace=wrap;html=1;boundedLbl=1;backgroundOutline=1;size=15;gradientColor=#ffffff;fillColor=#CCE5FF;" vertex="1" parent="1">
          <mxGeometry x="-670" y="1320" width="300" height="100" as="geometry" />
        </mxCell>
        <mxCell id="qfqtDnRgR9i1htIjxdiv-125" value="&lt;font style=&quot;font-size: 24px&quot;&gt;报单&lt;/font&gt;" style="strokeWidth=2;html=1;shape=mxgraph.flowchart.document2;whiteSpace=wrap;size=0.25;fillColor=#CCE5FF;gradientColor=#ffffff;" vertex="1" parent="1">
          <mxGeometry x="-1044" y="822.5" width="214" height="87.5" as="geometry" />
        </mxCell>
        <mxCell id="qfqtDnRgR9i1htIjxdiv-126" value="&lt;font style=&quot;font-size: 24px&quot;&gt;行情&lt;/font&gt;" style="strokeWidth=2;html=1;shape=mxgraph.flowchart.document2;whiteSpace=wrap;size=0.25;fillColor=#CCE5FF;gradientColor=#ffffff;" vertex="1" parent="1">
          <mxGeometry x="-1044" y="1000" width="214" height="87.5" as="geometry" />
        </mxCell>
        <mxCell id="qfqtDnRgR9i1htIjxdiv-135" value="" style="edgeStyle=orthogonalEdgeStyle;rounded=0;orthogonalLoop=1;jettySize=auto;html=1;entryX=0.546;entryY=-0.001;entryDx=0;entryDy=0;entryPerimeter=0;" edge="1" parent="1" target="qfqtDnRgR9i1htIjxdiv-38">
          <mxGeometry relative="1" as="geometry">
            <mxPoint x="80" y="890" as="sourcePoint" />
            <mxPoint x="-19.97" y="969.97" as="targetPoint" />
            <Array as="points">
              <mxPoint x="80" y="920" />
              <mxPoint x="-13" y="920" />
              <mxPoint x="-13" y="980" />
            </Array>
          </mxGeometry>
        </mxCell>
        <mxCell id="qfqtDnRgR9i1htIjxdiv-137" value="&lt;span style=&quot;font-size: 24px&quot;&gt;有效接口(&lt;/span&gt;&lt;span style=&quot;font-size: 24px&quot;&gt;REST&lt;/span&gt;&lt;span style=&quot;font-size: 24px&quot;&gt;)&lt;/span&gt;" style="edgeLabel;html=1;align=center;verticalAlign=middle;resizable=0;points=[];" vertex="1" connectable="0" parent="1">
          <mxGeometry x="-699.9999999999995" y="690.004253061235" as="geometry">
            <mxPoint x="911" y="-5" as="offset" />
          </mxGeometry>
        </mxCell>
        <mxCell id="qfqtDnRgR9i1htIjxdiv-138" value="&lt;span style=&quot;font-size: 24px&quot;&gt;有效&lt;/span&gt;&lt;span style=&quot;font-size: 24px&quot;&gt;接口&lt;/span&gt;&lt;span style=&quot;font-size: 24px&quot;&gt;&lt;br&gt;(&lt;/span&gt;&lt;span style=&quot;font-size: 24px&quot;&gt;REST/GRPC&lt;/span&gt;&lt;span style=&quot;font-size: 24px&quot;&gt;)&lt;/span&gt;" style="edgeLabel;html=1;align=center;verticalAlign=middle;resizable=0;points=[];" vertex="1" connectable="0" parent="1">
          <mxGeometry x="-189.99999999999955" y="730.004253061235" as="geometry">
            <mxPoint x="911" y="-5" as="offset" />
          </mxGeometry>
        </mxCell>
        <mxCell id="qfqtDnRgR9i1htIjxdiv-139" value="" style="edgeStyle=orthogonalEdgeStyle;rounded=0;orthogonalLoop=1;jettySize=auto;html=1;entryX=0.78;entryY=0;entryDx=0;entryDy=0;entryPerimeter=0;" edge="1" parent="1" source="qfqtDnRgR9i1htIjxdiv-8" target="qfqtDnRgR9i1htIjxdiv-16">
          <mxGeometry relative="1" as="geometry">
            <mxPoint x="660" y="249.99999999999977" as="sourcePoint" />
            <mxPoint x="560" y="310" as="targetPoint" />
            <Array as="points">
              <mxPoint x="624" y="280" />
              <mxPoint x="560" y="280" />
            </Array>
          </mxGeometry>
        </mxCell>
        <mxCell id="qfqtDnRgR9i1htIjxdiv-140" value="" style="edgeStyle=orthogonalEdgeStyle;rounded=0;orthogonalLoop=1;jettySize=auto;html=1;entryX=0.237;entryY=0;entryDx=0;entryDy=0;entryPerimeter=0;" edge="1" parent="1" target="qfqtDnRgR9i1htIjxdiv-16">
          <mxGeometry relative="1" as="geometry">
            <mxPoint x="133.81" y="186" as="sourcePoint" />
            <mxPoint x="240" y="310" as="targetPoint" />
            <Array as="points">
              <mxPoint x="134" y="280" />
              <mxPoint x="240" y="280" />
            </Array>
          </mxGeometry>
        </mxCell>
        <mxCell id="qfqtDnRgR9i1htIjxdiv-149" value="&lt;font style=&quot;font-size: 24px&quot;&gt;基金参数&lt;br&gt;参数文件&lt;br&gt;SFPM&lt;br&gt;&lt;/font&gt;" style="edgeLabel;html=1;align=center;verticalAlign=middle;resizable=0;points=[];" vertex="1" connectable="0" parent="1">
          <mxGeometry x="-280" y="950.0042857142857" as="geometry">
            <mxPoint x="-4" y="7" as="offset" />
          </mxGeometry>
        </mxCell>
        <mxCell id="qfqtDnRgR9i1htIjxdiv-150" value="" style="endArrow=classic;html=1;entryX=1;entryY=0.5;entryDx=0;entryDy=0;" edge="1" parent="1">
          <mxGeometry width="50" height="50" relative="1" as="geometry">
            <mxPoint x="-240" y="1040" as="sourcePoint" />
            <mxPoint x="-330" y="1040" as="targetPoint" />
          </mxGeometry>
        </mxCell>
        <mxCell id="qfqtDnRgR9i1htIjxdiv-151" value="" style="endArrow=classic;html=1;entryX=0;entryY=0.73;entryDx=0;entryDy=0;entryPerimeter=0;" edge="1" parent="1" target="qfqtDnRgR9i1htIjxdiv-29">
          <mxGeometry width="50" height="50" relative="1" as="geometry">
            <mxPoint x="365" y="960" as="sourcePoint" />
            <mxPoint x="440" y="960" as="targetPoint" />
          </mxGeometry>
        </mxCell>
        <mxCell id="qfqtDnRgR9i1htIjxdiv-152" value="" style="endArrow=classic;html=1;" edge="1" parent="1">
          <mxGeometry width="50" height="50" relative="1" as="geometry">
            <mxPoint x="255" y="960" as="sourcePoint" />
            <mxPoint x="180" y="960" as="targetPoint" />
          </mxGeometry>
        </mxCell>
        <mxCell id="qfqtDnRgR9i1htIjxdiv-154" value="&lt;font style=&quot;font-size: 24px&quot;&gt;&lt;b&gt;UFMS&lt;/b&gt;&lt;/font&gt;" style="ellipse;whiteSpace=wrap;html=1;fillColor=#CCE5FF;gradientColor=#ffffff;" vertex="1" parent="1">
          <mxGeometry x="240" y="877.5" width="120" height="175" as="geometry" />
        </mxCell>
        <mxCell id="qfqtDnRgR9i1htIjxdiv-156" value="&lt;span style=&quot;font-size: 24px&quot;&gt;REST&lt;/span&gt;" style="edgeLabel;html=1;align=center;verticalAlign=middle;resizable=0;points=[];" vertex="1" connectable="0" parent="1">
          <mxGeometry x="-529.9999999999995" y="940.004253061235" as="geometry">
            <mxPoint x="911" y="-5" as="offset" />
          </mxGeometry>
        </mxCell>
        <mxCell id="qfqtDnRgR9i1htIjxdiv-163" value="&lt;span style=&quot;font-size: 18px&quot;&gt;(FTP&lt;/span&gt;&lt;span style=&quot;font-size: 18px&quot;&gt;)&lt;/span&gt;" style="edgeLabel;html=1;align=center;verticalAlign=middle;resizable=0;points=[];" vertex="1" connectable="0" parent="1">
          <mxGeometry x="-420.00000000000045" y="1179.9958823529414" as="geometry">
            <mxPoint x="-188" y="-23" as="offset" />
          </mxGeometry>
        </mxCell>
        <mxCell id="qfqtDnRgR9i1htIjxdiv-165" value="" style="edgeStyle=orthogonalEdgeStyle;rounded=0;orthogonalLoop=1;jettySize=auto;html=1;exitX=0.443;exitY=1.016;exitDx=0;exitDy=0;exitPerimeter=0;" edge="1" parent="1" source="qfqtDnRgR9i1htIjxdiv-49">
          <mxGeometry relative="1" as="geometry">
            <mxPoint x="841.43" y="910" as="sourcePoint" />
            <mxPoint x="741" y="960" as="targetPoint" />
            <Array as="points">
              <mxPoint x="651" y="900" />
              <mxPoint x="741" y="900" />
            </Array>
          </mxGeometry>
        </mxCell>
        <mxCell id="qfqtDnRgR9i1htIjxdiv-169" value="" style="edgeStyle=orthogonalEdgeStyle;rounded=0;orthogonalLoop=1;jettySize=auto;html=1;" edge="1" parent="1">
          <mxGeometry relative="1" as="geometry">
            <mxPoint x="850" y="1131" as="sourcePoint" />
            <mxPoint x="400" y="1260" as="targetPoint" />
            <Array as="points">
              <mxPoint x="850" y="1200" />
              <mxPoint x="400" y="1200" />
            </Array>
          </mxGeometry>
        </mxCell>
        <mxCell id="qfqtDnRgR9i1htIjxdiv-172" value="" style="endArrow=classic;html=1;entryX=0.41;entryY=0.009;entryDx=0;entryDy=0;entryPerimeter=0;exitX=0.577;exitY=1.013;exitDx=0;exitDy=0;exitPerimeter=0;" edge="1" parent="1" source="qfqtDnRgR9i1htIjxdiv-26" target="qfqtDnRgR9i1htIjxdiv-49">
          <mxGeometry width="50" height="50" relative="1" as="geometry">
            <mxPoint x="630" y="770" as="sourcePoint" />
            <mxPoint x="680" y="720" as="targetPoint" />
          </mxGeometry>
        </mxCell>
        <mxCell id="qfqtDnRgR9i1htIjxdiv-174" value="" style="group;fillColor=#f8cecc;strokeColor=#b85450;" vertex="1" connectable="0" parent="1">
          <mxGeometry x="50" y="1320" width="280" height="200" as="geometry" />
        </mxCell>
        <mxCell id="qfqtDnRgR9i1htIjxdiv-70" value="" style="rounded=0;whiteSpace=wrap;html=1;gradientColor=#ffffff;fillColor=none;" vertex="1" parent="qfqtDnRgR9i1htIjxdiv-174">
          <mxGeometry width="280" height="200" as="geometry" />
        </mxCell>
        <mxCell id="qfqtDnRgR9i1htIjxdiv-72" value="&lt;span style=&quot;color: rgb(255 , 153 , 51) ; font-size: 24px&quot;&gt;数据中心&lt;/span&gt;" style="text;html=1;resizable=0;autosize=1;align=center;verticalAlign=middle;points=[];fillColor=none;strokeColor=none;rounded=0;" vertex="1" parent="qfqtDnRgR9i1htIjxdiv-174">
          <mxGeometry x="2.2737367544323206e-13" y="10" width="110" height="20" as="geometry" />
        </mxCell>
        <mxCell id="qfqtDnRgR9i1htIjxdiv-127" value="&lt;b&gt;&lt;font style=&quot;font-size: 24px&quot;&gt;机构和配售对象&lt;br&gt;名单数据&lt;/font&gt;&lt;/b&gt;" style="shape=cylinder2;whiteSpace=wrap;html=1;boundedLbl=1;backgroundOutline=1;size=15;gradientColor=#ffffff;fillColor=#CCE5FF;" vertex="1" parent="qfqtDnRgR9i1htIjxdiv-174">
          <mxGeometry x="10" y="40" width="240" height="145" as="geometry" />
        </mxCell>
        <mxCell id="qfqtDnRgR9i1htIjxdiv-175" value="" style="group;fillColor=#f8cecc;strokeColor=#b85450;" vertex="1" connectable="0" parent="1">
          <mxGeometry x="390" y="1320" width="280" height="190" as="geometry" />
        </mxCell>
        <mxCell id="qfqtDnRgR9i1htIjxdiv-73" value="" style="rounded=0;whiteSpace=wrap;html=1;gradientColor=#ffffff;fillColor=none;" vertex="1" parent="qfqtDnRgR9i1htIjxdiv-175">
          <mxGeometry width="280" height="190" as="geometry" />
        </mxCell>
        <mxCell id="qfqtDnRgR9i1htIjxdiv-71" value="&lt;font style=&quot;font-size: 24px&quot; color=&quot;#ff9933&quot;&gt;业务中心&lt;/font&gt;" style="text;html=1;resizable=0;autosize=1;align=center;verticalAlign=middle;points=[];fillColor=none;strokeColor=none;rounded=0;" vertex="1" parent="qfqtDnRgR9i1htIjxdiv-175">
          <mxGeometry x="2.2737367544323206e-13" y="10" width="110" height="20" as="geometry" />
        </mxCell>
        <mxCell id="qfqtDnRgR9i1htIjxdiv-128" value="&lt;span style=&quot;font-size: 24px&quot;&gt;&lt;b&gt;用户中心&lt;/b&gt;&lt;/span&gt;" style="shape=cylinder2;whiteSpace=wrap;html=1;boundedLbl=1;backgroundOutline=1;size=15;gradientColor=#ffffff;fillColor=#CCE5FF;" vertex="1" parent="qfqtDnRgR9i1htIjxdiv-175">
          <mxGeometry x="30" y="40" width="220" height="140" as="geometry" />
        </mxCell>
        <mxCell id="qfqtDnRgR9i1htIjxdiv-176" value="&lt;font style=&quot;font-size: 24px&quot; color=&quot;#ff9933&quot;&gt;中台服务&lt;/font&gt;" style="text;html=1;resizable=0;autosize=1;align=center;verticalAlign=middle;points=[];fillColor=none;strokeColor=none;rounded=0;" vertex="1" parent="1">
          <mxGeometry x="40" y="1270" width="110" height="20" as="geometry" />
        </mxCell>
        <mxCell id="qfqtDnRgR9i1htIjxdiv-180" value="" style="edgeStyle=orthogonalEdgeStyle;rounded=0;orthogonalLoop=1;jettySize=auto;html=1;exitX=0.459;exitY=1.005;exitDx=0;exitDy=0;exitPerimeter=0;" edge="1" parent="1" source="qfqtDnRgR9i1htIjxdiv-28">
          <mxGeometry relative="1" as="geometry">
            <mxPoint x="860" y="1141" as="sourcePoint" />
            <mxPoint x="400" y="1260" as="targetPoint" />
            <Array as="points">
              <mxPoint x="-42" y="1200" />
              <mxPoint x="400" y="1200" />
            </Array>
          </mxGeometry>
        </mxCell>
        <mxCell id="qfqtDnRgR9i1htIjxdiv-181" value="&lt;span style=&quot;font-size: 24px&quot;&gt;REST&lt;/span&gt;" style="edgeLabel;html=1;align=center;verticalAlign=middle;resizable=0;points=[];" vertex="1" connectable="0" parent="1">
          <mxGeometry x="-509.99999999999955" y="1179.994253061235" as="geometry">
            <mxPoint x="911" y="-5" as="offset" />
          </mxGeometry>
        </mxCell>
      </root>
    </mxGraphModel>
  </diagram>
  <diagram id="RFez3lNjL9ar6PfGb7UX" name="登陆顺序图">
    
    <mxGraphModel dx="1038" dy="564" grid="1" gridSize="10" guides="1" tooltips="1" connect="1" arrows="1" fold="1" page="1" pageScale="1" pageWidth="827" pageHeight="1169" math="0" shadow="0">
      
      <root>
        
        <mxCell id="JJKDrCV2eTXsHWgG4l_X-0" />
        
        <mxCell id="JJKDrCV2eTXsHWgG4l_X-1" parent="JJKDrCV2eTXsHWgG4l_X-0" />
        
        <mxCell id="2XEkXMm5EQe36F09QX2t-0" value="&lt;font style=&quot;font-size: 14px&quot;&gt;&lt;b&gt;web，app,H5&lt;br&gt;(用户界面)&lt;/b&gt;&lt;/font&gt;" style="rounded=1;whiteSpace=wrap;html=1;fillColor=#d5e8d4;strokeColor=#82b366;gradientColor=#97d077;" vertex="1" parent="JJKDrCV2eTXsHWgG4l_X-1">
          
          <mxGeometry x="15" y="40" width="130" height="60" as="geometry" />
          
        </mxCell>
        
        <mxCell id="e7lo5KHjXOnK4Ev--E7Q-0" value="&lt;font style=&quot;font-size: 14px&quot;&gt;&lt;b&gt;UUMS&lt;br&gt;用户中心&lt;br&gt;&lt;/b&gt;&lt;/font&gt;" style="rounded=1;whiteSpace=wrap;html=1;fillColor=#ffcd28;strokeColor=#d79b00;gradientColor=#ffa500;" vertex="1" parent="JJKDrCV2eTXsHWgG4l_X-1">
          
          <mxGeometry x="560" y="40" width="120" height="60" as="geometry" />
          
        </mxCell>
        
        <mxCell id="e7lo5KHjXOnK4Ev--E7Q-3" value="&lt;font style=&quot;font-size: 14px&quot;&gt;&lt;b&gt;网关&lt;br&gt;(企业网关/交易API网关)&lt;/b&gt;&lt;/font&gt;" style="rounded=1;whiteSpace=wrap;html=1;fillColor=#dae8fc;strokeColor=#6c8ebf;gradientColor=#7ea6e0;" vertex="1" parent="JJKDrCV2eTXsHWgG4l_X-1">
          
          <mxGeometry x="270" y="40" width="176" height="60" as="geometry" />
          
        </mxCell>
        
        <mxCell id="e7lo5KHjXOnK4Ev--E7Q-4" value="" style="endArrow=none;dashed=1;html=1;strokeColor=#006658;fillColor=#21C0A5;fontColor=#5C5C5C;" edge="1" parent="JJKDrCV2eTXsHWgG4l_X-1" source="e7lo5KHjXOnK4Ev--E7Q-16">
          
          <mxGeometry width="50" height="50" relative="1" as="geometry">
            
            <mxPoint x="80" y="360" as="sourcePoint" />
            
            <mxPoint x="79.5" y="100" as="targetPoint" />
            
          </mxGeometry>
          
        </mxCell>
        
        <mxCell id="e7lo5KHjXOnK4Ev--E7Q-5" value="" style="endArrow=none;dashed=1;html=1;strokeColor=#006658;fillColor=#21C0A5;fontColor=#5C5C5C;" edge="1" parent="JJKDrCV2eTXsHWgG4l_X-1">
          
          <mxGeometry width="50" height="50" relative="1" as="geometry">
            
            <mxPoint x="358" y="360" as="sourcePoint" />
            
            <mxPoint x="357.76" y="100" as="targetPoint" />
            
          </mxGeometry>
          
        </mxCell>
        
        <mxCell id="e7lo5KHjXOnK4Ev--E7Q-6" value="" style="endArrow=none;dashed=1;html=1;strokeColor=#006658;fillColor=#21C0A5;fontColor=#5C5C5C;" edge="1" parent="JJKDrCV2eTXsHWgG4l_X-1">
          
          <mxGeometry width="50" height="50" relative="1" as="geometry">
            
            <mxPoint x="630.5" y="360" as="sourcePoint" />
            
            <mxPoint x="630" y="100" as="targetPoint" />
            
          </mxGeometry>
          
        </mxCell>
        
        <mxCell id="e7lo5KHjXOnK4Ev--E7Q-7" value="" style="endArrow=classic;html=1;strokeColor=#006658;fillColor=#21C0A5;fontColor=#5C5C5C;" edge="1" parent="JJKDrCV2eTXsHWgG4l_X-1">
          
          <mxGeometry width="50" height="50" relative="1" as="geometry">
            
            <mxPoint x="80" y="139.84" as="sourcePoint" />
            
            <mxPoint x="340" y="139.84" as="targetPoint" />
            
          </mxGeometry>
          
        </mxCell>
        
        <mxCell id="e7lo5KHjXOnK4Ev--E7Q-8" value="" style="endArrow=classic;html=1;strokeColor=#006658;fillColor=#21C0A5;fontColor=#5C5C5C;" edge="1" parent="JJKDrCV2eTXsHWgG4l_X-1" source="e7lo5KHjXOnK4Ev--E7Q-18">
          
          <mxGeometry width="50" height="50" relative="1" as="geometry">
            
            <mxPoint x="370.0000000000001" y="160" as="sourcePoint" />
            
            <mxPoint x="630" y="160" as="targetPoint" />
            
          </mxGeometry>
          
        </mxCell>
        
        <mxCell id="e7lo5KHjXOnK4Ev--E7Q-10" value="" style="endArrow=classic;html=1;strokeColor=#006658;fillColor=#21C0A5;fontColor=#5C5C5C;entryX=0;entryY=0;entryDx=0;entryDy=0;" edge="1" parent="JJKDrCV2eTXsHWgG4l_X-1" target="e7lo5KHjXOnK4Ev--E7Q-18">
          
          <mxGeometry width="50" height="50" relative="1" as="geometry">
            
            <mxPoint x="370" y="140" as="sourcePoint" />
            
            <mxPoint x="600" y="140" as="targetPoint" />
            
          </mxGeometry>
          
        </mxCell>
        
        <mxCell id="e7lo5KHjXOnK4Ev--E7Q-13" value="用户名,密码，验证码等" style="text;html=1;resizable=0;autosize=1;align=center;verticalAlign=middle;points=[];fillColor=none;strokeColor=none;rounded=0;sketch=0;fontColor=#5C5C5C;" vertex="1" parent="JJKDrCV2eTXsHWgG4l_X-1">
          
          <mxGeometry x="130" y="120" width="140" height="20" as="geometry" />
          
        </mxCell>
        
        <mxCell id="e7lo5KHjXOnK4Ev--E7Q-15" value="用户名,密码，验证码等" style="text;html=1;resizable=0;autosize=1;align=center;verticalAlign=middle;points=[];fillColor=none;strokeColor=none;rounded=0;sketch=0;fontColor=#5C5C5C;" vertex="1" parent="JJKDrCV2eTXsHWgG4l_X-1">
          
          <mxGeometry x="410" y="120" width="140" height="20" as="geometry" />
          
        </mxCell>
        
        <mxCell id="e7lo5KHjXOnK4Ev--E7Q-16" value="&lt;b&gt;登录请求&lt;/b&gt;" style="rhombus;whiteSpace=wrap;html=1;rounded=0;sketch=0;strokeColor=#006658;fontColor=#5C5C5C;fillColor=#22C7AB;" vertex="1" parent="JJKDrCV2eTXsHWgG4l_X-1">
          
          <mxGeometry x="40" y="120" width="80" height="80" as="geometry" />
          
        </mxCell>
        
        <mxCell id="e7lo5KHjXOnK4Ev--E7Q-17" value="" style="endArrow=none;dashed=1;html=1;strokeColor=#006658;fillColor=#21C0A5;fontColor=#5C5C5C;" edge="1" parent="JJKDrCV2eTXsHWgG4l_X-1" target="e7lo5KHjXOnK4Ev--E7Q-16">
          
          <mxGeometry width="50" height="50" relative="1" as="geometry">
            
            <mxPoint x="80" y="360" as="sourcePoint" />
            
            <mxPoint x="79.49999999999989" y="100" as="targetPoint" />
            
          </mxGeometry>
          
        </mxCell>
        
        <mxCell id="e7lo5KHjXOnK4Ev--E7Q-18" value="&lt;b&gt;获取用户&lt;br&gt;token&lt;/b&gt;" style="rhombus;whiteSpace=wrap;html=1;rounded=0;sketch=0;strokeColor=#006658;fillColor=#21C0A5;fontColor=#5C5C5C;" vertex="1" parent="JJKDrCV2eTXsHWgG4l_X-1">
          
          <mxGeometry x="590" y="120" width="80" height="80" as="geometry" />
          
        </mxCell>
        
        <mxCell id="e7lo5KHjXOnK4Ev--E7Q-23" value="" style="endArrow=classic;html=1;strokeColor=#006658;fillColor=#21C0A5;fontColor=#5C5C5C;" edge="1" parent="JJKDrCV2eTXsHWgG4l_X-1">
          
          <mxGeometry width="50" height="50" relative="1" as="geometry">
            
            <mxPoint x="340" y="180" as="sourcePoint" />
            
            <mxPoint x="100" y="180" as="targetPoint" />
            
          </mxGeometry>
          
        </mxCell>
        
        <mxCell id="e7lo5KHjXOnK4Ev--E7Q-24" value="" style="endArrow=classic;html=1;strokeColor=#006658;fillColor=#21C0A5;fontColor=#5C5C5C;" edge="1" parent="JJKDrCV2eTXsHWgG4l_X-1">
          
          <mxGeometry width="50" height="50" relative="1" as="geometry">
            
            <mxPoint x="610" y="180" as="sourcePoint" />
            
            <mxPoint x="370" y="180" as="targetPoint" />
            
          </mxGeometry>
          
        </mxCell>
        
        <mxCell id="e7lo5KHjXOnK4Ev--E7Q-25" value="返回token" style="text;html=1;resizable=0;autosize=1;align=center;verticalAlign=middle;points=[];fillColor=none;strokeColor=none;rounded=0;sketch=0;fontColor=#5C5C5C;" vertex="1" parent="JJKDrCV2eTXsHWgG4l_X-1">
          
          <mxGeometry x="455" y="160" width="70" height="20" as="geometry" />
          
        </mxCell>
        
        <mxCell id="e7lo5KHjXOnK4Ev--E7Q-26" value="返回token" style="text;html=1;resizable=0;autosize=1;align=center;verticalAlign=middle;points=[];fillColor=none;strokeColor=none;rounded=0;sketch=0;fontColor=#5C5C5C;" vertex="1" parent="JJKDrCV2eTXsHWgG4l_X-1">
          
          <mxGeometry x="165" y="160" width="70" height="20" as="geometry" />
          
        </mxCell>
        
        <mxCell id="e7lo5KHjXOnK4Ev--E7Q-27" value="&lt;b&gt;其他业务&lt;br&gt;请求&lt;/b&gt;" style="rounded=0;whiteSpace=wrap;html=1;fillColor=#ffcc99;strokeColor=#36393d;" vertex="1" parent="JJKDrCV2eTXsHWgG4l_X-1">
          
          <mxGeometry x="40" y="240" width="80" height="90" as="geometry" />
          
        </mxCell>
        
        <mxCell id="e7lo5KHjXOnK4Ev--E7Q-34" value="" style="endArrow=classic;html=1;strokeColor=#006658;fillColor=#21C0A5;fontColor=#5C5C5C;" edge="1" parent="JJKDrCV2eTXsHWgG4l_X-1">
          
          <mxGeometry width="50" height="50" relative="1" as="geometry">
            
            <mxPoint x="120" y="280" as="sourcePoint" />
            
            <mxPoint x="360" y="280" as="targetPoint" />
            
          </mxGeometry>
          
        </mxCell>
        
        <mxCell id="e7lo5KHjXOnK4Ev--E7Q-36" value="请求参数" style="text;html=1;resizable=0;autosize=1;align=center;verticalAlign=middle;points=[];fillColor=none;strokeColor=none;rounded=0;sketch=0;fontColor=#5C5C5C;" vertex="1" parent="JJKDrCV2eTXsHWgG4l_X-1">
          
          <mxGeometry x="195" y="260" width="60" height="20" as="geometry" />
          
        </mxCell>
        
        <mxCell id="f92GwLYrUkSBwC8PL-7O-0" value="&lt;font style=&quot;font-size: 14px&quot; color=&quot;#ff8000&quot;&gt;&lt;b&gt;用户登录顺序图&lt;/b&gt;&lt;/font&gt;" style="text;html=1;resizable=0;autosize=1;align=center;verticalAlign=middle;points=[];fillColor=none;strokeColor=none;rounded=0;dashed=1;dashPattern=1 2;sketch=0;fontColor=#5C5C5C;" vertex="1" parent="JJKDrCV2eTXsHWgG4l_X-1">
          
          <mxGeometry x="340" width="110" height="20" as="geometry" />
          
        </mxCell>
        
      </root>
      
    </mxGraphModel>
    
  </diagram>
  <diagram id="Ykd793zyvduYX_jnsMHu" name="申报基金顺序图">
    
    <mxGraphModel dx="1038" dy="564" grid="1" gridSize="10" guides="1" tooltips="1" connect="1" arrows="1" fold="1" page="1" pageScale="1" pageWidth="827" pageHeight="1169" math="0" shadow="0">
      
      <root>
        
        <mxCell id="uoE901anN9h6SREGYmKl-0" />
        
        <mxCell id="uoE901anN9h6SREGYmKl-1" parent="uoE901anN9h6SREGYmKl-0" />
        
        <mxCell id="4W-amokvwwM318Wg36pv-0" value="&lt;font style=&quot;font-size: 14px&quot;&gt;&lt;b&gt;web，app,H5&lt;br&gt;(用户界面)&lt;/b&gt;&lt;/font&gt;" style="rounded=1;whiteSpace=wrap;html=1;fillColor=#d5e8d4;strokeColor=#82b366;gradientColor=#97d077;" vertex="1" parent="uoE901anN9h6SREGYmKl-1">
          
          <mxGeometry x="70" y="50" width="130" height="60" as="geometry" />
          
        </mxCell>
        
        <mxCell id="4W-amokvwwM318Wg36pv-1" value="&lt;font style=&quot;font-size: 14px&quot;&gt;&lt;b&gt;业管平台&lt;br&gt;&lt;/b&gt;&lt;/font&gt;" style="rounded=1;whiteSpace=wrap;html=1;fillColor=#ffcd28;strokeColor=#d79b00;gradientColor=#ffa500;" vertex="1" parent="uoE901anN9h6SREGYmKl-1">
          
          <mxGeometry x="615" y="50" width="120" height="60" as="geometry" />
          
        </mxCell>
        
        <mxCell id="4W-amokvwwM318Wg36pv-2" value="&lt;font style=&quot;font-size: 14px&quot;&gt;&lt;b&gt;网关&lt;br&gt;&lt;/b&gt;&lt;/font&gt;" style="rounded=1;whiteSpace=wrap;html=1;fillColor=#dae8fc;strokeColor=#6c8ebf;gradientColor=#7ea6e0;" vertex="1" parent="uoE901anN9h6SREGYmKl-1">
          
          <mxGeometry x="325" y="50" width="176" height="60" as="geometry" />
          
        </mxCell>
        
        <mxCell id="4W-amokvwwM318Wg36pv-4" value="" style="endArrow=none;dashed=1;html=1;strokeColor=#006658;fillColor=#21C0A5;fontColor=#5C5C5C;" edge="1" parent="uoE901anN9h6SREGYmKl-1" source="J6JQULIBf8OnE9_8mZd_-0">
          
          <mxGeometry width="50" height="50" relative="1" as="geometry">
            
            <mxPoint x="413" y="400" as="sourcePoint" />
            
            <mxPoint x="412.76" y="110" as="targetPoint" />
            
          </mxGeometry>
          
        </mxCell>
        
        <mxCell id="4W-amokvwwM318Wg36pv-5" value="" style="endArrow=none;dashed=1;html=1;strokeColor=#006658;fillColor=#21C0A5;fontColor=#5C5C5C;" edge="1" parent="uoE901anN9h6SREGYmKl-1">
          
          <mxGeometry width="50" height="50" relative="1" as="geometry">
            
            <mxPoint x="685" y="400" as="sourcePoint" />
            
            <mxPoint x="685" y="110" as="targetPoint" />
            
          </mxGeometry>
          
        </mxCell>
        
        <mxCell id="4W-amokvwwM318Wg36pv-21" value="" style="endArrow=none;dashed=1;html=1;strokeColor=#006658;fillColor=#21C0A5;fontColor=#5C5C5C;" edge="1" parent="uoE901anN9h6SREGYmKl-1">
          
          <mxGeometry width="50" height="50" relative="1" as="geometry">
            
            <mxPoint x="134" y="400" as="sourcePoint" />
            
            <mxPoint x="134.5" y="110" as="targetPoint" />
            
          </mxGeometry>
          
        </mxCell>
        
        <mxCell id="4W-amokvwwM318Wg36pv-22" value="" style="endArrow=classic;html=1;strokeColor=#006658;fillColor=#21C0A5;fontColor=#5C5C5C;" edge="1" parent="uoE901anN9h6SREGYmKl-1">
          
          <mxGeometry width="50" height="50" relative="1" as="geometry">
            
            <mxPoint x="440" y="160" as="sourcePoint" />
            
            <mxPoint x="640" y="160" as="targetPoint" />
            
          </mxGeometry>
          
        </mxCell>
        
        <mxCell id="4W-amokvwwM318Wg36pv-25" value="" style="endArrow=classic;html=1;strokeColor=#006658;fillColor=#21C0A5;fontColor=#5C5C5C;exitX=1;exitY=0.25;exitDx=0;exitDy=0;" edge="1" parent="uoE901anN9h6SREGYmKl-1" source="4W-amokvwwM318Wg36pv-31">
          
          <mxGeometry width="50" height="50" relative="1" as="geometry">
            
            <mxPoint x="160" y="160" as="sourcePoint" />
            
            <mxPoint x="380" y="160" as="targetPoint" />
            
          </mxGeometry>
          
        </mxCell>
        
        <mxCell id="4W-amokvwwM318Wg36pv-26" value="基金管理人提起发售申请" style="text;html=1;resizable=0;autosize=1;align=center;verticalAlign=middle;points=[];fillColor=none;strokeColor=none;rounded=0;dashed=1;dashPattern=1 2;sketch=0;fontColor=#5C5C5C;" vertex="1" parent="uoE901anN9h6SREGYmKl-1">
          
          <mxGeometry x="190" y="140" width="150" height="20" as="geometry" />
          
        </mxCell>
        
        <mxCell id="4W-amokvwwM318Wg36pv-27" value="同时提交电子材料等" style="text;html=1;resizable=0;autosize=1;align=center;verticalAlign=middle;points=[];fillColor=none;strokeColor=none;rounded=0;dashed=1;dashPattern=1 2;sketch=0;fontColor=#5C5C5C;" vertex="1" parent="uoE901anN9h6SREGYmKl-1">
          
          <mxGeometry x="205" y="160" width="120" height="20" as="geometry" />
          
        </mxCell>
        
        <mxCell id="4W-amokvwwM318Wg36pv-28" value="" style="endArrow=classic;html=1;strokeColor=#006658;fillColor=#21C0A5;fontColor=#5C5C5C;" edge="1" parent="uoE901anN9h6SREGYmKl-1">
          
          <mxGeometry width="50" height="50" relative="1" as="geometry">
            
            <mxPoint x="640" y="200" as="sourcePoint" />
            
            <mxPoint x="440" y="200" as="targetPoint" />
            
          </mxGeometry>
          
        </mxCell>
        
        <mxCell id="4W-amokvwwM318Wg36pv-29" value="发售申请回复" style="text;html=1;resizable=0;autosize=1;align=center;verticalAlign=middle;points=[];fillColor=none;strokeColor=none;rounded=0;dashed=1;dashPattern=1 2;sketch=0;fontColor=#5C5C5C;" vertex="1" parent="uoE901anN9h6SREGYmKl-1">
          
          <mxGeometry x="480" y="180" width="90" height="20" as="geometry" />
          
        </mxCell>
        
        <mxCell id="4W-amokvwwM318Wg36pv-30" value="" style="endArrow=classic;html=1;strokeColor=#006658;fillColor=#21C0A5;fontColor=#5C5C5C;entryX=1;entryY=0.75;entryDx=0;entryDy=0;" edge="1" parent="uoE901anN9h6SREGYmKl-1" target="4W-amokvwwM318Wg36pv-31">
          
          <mxGeometry width="50" height="50" relative="1" as="geometry">
            
            <mxPoint x="380" y="200" as="sourcePoint" />
            
            <mxPoint x="160" y="200" as="targetPoint" />
            
          </mxGeometry>
          
        </mxCell>
        
        <mxCell id="4W-amokvwwM318Wg36pv-31" value="申报基金" style="rounded=1;whiteSpace=wrap;html=1;dashed=1;dashPattern=1 2;sketch=0;strokeColor=#36393d;fillColor=#cce5ff;" vertex="1" parent="uoE901anN9h6SREGYmKl-1">
          
          <mxGeometry x="100" y="140" width="70" height="80" as="geometry" />
          
        </mxCell>
        
        <mxCell id="4W-amokvwwM318Wg36pv-34" value="询价" style="rounded=1;whiteSpace=wrap;html=1;dashed=1;dashPattern=1 2;sketch=0;strokeColor=#36393d;fillColor=#cce5ff;" vertex="1" parent="uoE901anN9h6SREGYmKl-1">
          
          <mxGeometry x="100" y="240" width="70" height="100" as="geometry" />
          
        </mxCell>
        
        <mxCell id="4W-amokvwwM318Wg36pv-35" value="" style="endArrow=classic;html=1;strokeColor=#006658;fillColor=#21C0A5;fontColor=#5C5C5C;exitX=1;exitY=0.25;exitDx=0;exitDy=0;" edge="1" parent="uoE901anN9h6SREGYmKl-1">
          
          <mxGeometry width="50" height="50" relative="1" as="geometry">
            
            <mxPoint x="170" y="270" as="sourcePoint" />
            
            <mxPoint x="380" y="270" as="targetPoint" />
            
          </mxGeometry>
          
        </mxCell>
        
        <mxCell id="4W-amokvwwM318Wg36pv-36" value="发行人进行询价参数申请" style="text;html=1;resizable=0;autosize=1;align=center;verticalAlign=middle;points=[];fillColor=none;strokeColor=none;rounded=0;dashed=1;dashPattern=1 2;sketch=0;fontColor=#5C5C5C;" vertex="1" parent="uoE901anN9h6SREGYmKl-1">
          
          <mxGeometry x="190" y="250" width="150" height="20" as="geometry" />
          
        </mxCell>
        
        <mxCell id="QXxO0UJ7zqS1VjE629cD-0" value="" style="endArrow=classic;html=1;strokeColor=#006658;fillColor=#21C0A5;fontColor=#5C5C5C;" edge="1" parent="uoE901anN9h6SREGYmKl-1">
          
          <mxGeometry width="50" height="50" relative="1" as="geometry">
            
            <mxPoint x="440" y="270" as="sourcePoint" />
            
            <mxPoint x="640" y="270" as="targetPoint" />
            
          </mxGeometry>
          
        </mxCell>
        
        <mxCell id="QXxO0UJ7zqS1VjE629cD-1" value="" style="endArrow=classic;html=1;strokeColor=#006658;fillColor=#21C0A5;fontColor=#5C5C5C;entryX=1;entryY=0.75;entryDx=0;entryDy=0;" edge="1" parent="uoE901anN9h6SREGYmKl-1">
          
          <mxGeometry width="50" height="50" relative="1" as="geometry">
            
            <mxPoint x="380" y="279.58" as="sourcePoint" />
            
            <mxPoint x="170" y="279.58" as="targetPoint" />
            
          </mxGeometry>
          
        </mxCell>
        
        <mxCell id="QXxO0UJ7zqS1VjE629cD-2" value="" style="endArrow=classic;html=1;strokeColor=#006658;fillColor=#21C0A5;fontColor=#5C5C5C;" edge="1" parent="uoE901anN9h6SREGYmKl-1">
          
          <mxGeometry width="50" height="50" relative="1" as="geometry">
            
            <mxPoint x="640" y="279.58" as="sourcePoint" />
            
            <mxPoint x="440" y="279.58" as="targetPoint" />
            
          </mxGeometry>
          
        </mxCell>
        
        <mxCell id="QXxO0UJ7zqS1VjE629cD-3" value="" style="endArrow=classic;html=1;strokeColor=#006658;fillColor=#21C0A5;fontColor=#5C5C5C;exitX=1;exitY=0.25;exitDx=0;exitDy=0;" edge="1" parent="uoE901anN9h6SREGYmKl-1">
          
          <mxGeometry width="50" height="50" relative="1" as="geometry">
            
            <mxPoint x="170" y="310" as="sourcePoint" />
            
            <mxPoint x="380" y="310" as="targetPoint" />
            
          </mxGeometry>
          
        </mxCell>
        
        <mxCell id="QXxO0UJ7zqS1VjE629cD-4" value="发行人进行认购参数申请" style="text;html=1;resizable=0;autosize=1;align=center;verticalAlign=middle;points=[];fillColor=none;strokeColor=none;rounded=0;dashed=1;dashPattern=1 2;sketch=0;fontColor=#5C5C5C;" vertex="1" parent="uoE901anN9h6SREGYmKl-1">
          
          <mxGeometry x="190" y="290" width="150" height="20" as="geometry" />
          
        </mxCell>
        
        <mxCell id="QXxO0UJ7zqS1VjE629cD-5" value="" style="endArrow=classic;html=1;strokeColor=#006658;fillColor=#21C0A5;fontColor=#5C5C5C;" edge="1" parent="uoE901anN9h6SREGYmKl-1">
          
          <mxGeometry width="50" height="50" relative="1" as="geometry">
            
            <mxPoint x="440" y="310" as="sourcePoint" />
            
            <mxPoint x="640" y="310" as="targetPoint" />
            
          </mxGeometry>
          
        </mxCell>
        
        <mxCell id="QXxO0UJ7zqS1VjE629cD-6" value="" style="endArrow=classic;html=1;strokeColor=#006658;fillColor=#21C0A5;fontColor=#5C5C5C;" edge="1" parent="uoE901anN9h6SREGYmKl-1">
          
          <mxGeometry width="50" height="50" relative="1" as="geometry">
            
            <mxPoint x="640" y="319.99999999999994" as="sourcePoint" />
            
            <mxPoint x="440" y="319.99999999999994" as="targetPoint" />
            
          </mxGeometry>
          
        </mxCell>
        
        <mxCell id="QXxO0UJ7zqS1VjE629cD-7" value="" style="endArrow=classic;html=1;strokeColor=#006658;fillColor=#21C0A5;fontColor=#5C5C5C;entryX=1;entryY=0.75;entryDx=0;entryDy=0;" edge="1" parent="uoE901anN9h6SREGYmKl-1">
          
          <mxGeometry width="50" height="50" relative="1" as="geometry">
            
            <mxPoint x="380" y="319.99999999999994" as="sourcePoint" />
            
            <mxPoint x="170" y="319.99999999999994" as="targetPoint" />
            
          </mxGeometry>
          
        </mxCell>
        
        <mxCell id="BOt8j6b6oHrNubim1e8--0" value="&lt;font style=&quot;font-size: 14px&quot; color=&quot;#ff8000&quot;&gt;&lt;b&gt;基金申报顺序图&lt;/b&gt;&lt;/font&gt;" style="text;html=1;resizable=0;autosize=1;align=center;verticalAlign=middle;points=[];fillColor=none;strokeColor=none;rounded=0;dashed=1;dashPattern=1 2;sketch=0;fontColor=#5C5C5C;" vertex="1" parent="uoE901anN9h6SREGYmKl-1">
          
          <mxGeometry x="340" width="110" height="20" as="geometry" />
          
        </mxCell>
        
        <mxCell id="BOt8j6b6oHrNubim1e8--1" value="" style="endArrow=classic;html=1;strokeColor=#006658;fillColor=#21C0A5;fontColor=#5C5C5C;exitX=1;exitY=0.25;exitDx=0;exitDy=0;" edge="1" parent="uoE901anN9h6SREGYmKl-1">
          
          <mxGeometry width="50" height="50" relative="1" as="geometry">
            
            <mxPoint x="170" y="380" as="sourcePoint" />
            
            <mxPoint x="380" y="380" as="targetPoint" />
            
          </mxGeometry>
          
        </mxCell>
        
        <mxCell id="BOt8j6b6oHrNubim1e8--2" value="" style="endArrow=classic;html=1;strokeColor=#006658;fillColor=#21C0A5;fontColor=#5C5C5C;entryX=1;entryY=0.75;entryDx=0;entryDy=0;" edge="1" parent="uoE901anN9h6SREGYmKl-1">
          
          <mxGeometry width="50" height="50" relative="1" as="geometry">
            
            <mxPoint x="380" y="389.99999999999994" as="sourcePoint" />
            
            <mxPoint x="170" y="389.99999999999994" as="targetPoint" />
            
          </mxGeometry>
          
        </mxCell>
        
        <mxCell id="BOt8j6b6oHrNubim1e8--3" value="询价后中止发行" style="text;html=1;resizable=0;autosize=1;align=center;verticalAlign=middle;points=[];fillColor=none;strokeColor=none;rounded=0;dashed=1;dashPattern=1 2;sketch=0;fontColor=#5C5C5C;" vertex="1" parent="uoE901anN9h6SREGYmKl-1">
          
          <mxGeometry x="215" y="360" width="100" height="20" as="geometry" />
          
        </mxCell>
        
        <mxCell id="BOt8j6b6oHrNubim1e8--4" value="" style="endArrow=classic;html=1;strokeColor=#006658;fillColor=#21C0A5;fontColor=#5C5C5C;" edge="1" parent="uoE901anN9h6SREGYmKl-1">
          
          <mxGeometry width="50" height="50" relative="1" as="geometry">
            
            <mxPoint x="440" y="380" as="sourcePoint" />
            
            <mxPoint x="640" y="380" as="targetPoint" />
            
          </mxGeometry>
          
        </mxCell>
        
        <mxCell id="BOt8j6b6oHrNubim1e8--5" value="" style="endArrow=classic;html=1;strokeColor=#006658;fillColor=#21C0A5;fontColor=#5C5C5C;" edge="1" parent="uoE901anN9h6SREGYmKl-1">
          
          <mxGeometry width="50" height="50" relative="1" as="geometry">
            
            <mxPoint x="640" y="390" as="sourcePoint" />
            
            <mxPoint x="440" y="390" as="targetPoint" />
            
          </mxGeometry>
          
        </mxCell>
        
        <mxCell id="J6JQULIBf8OnE9_8mZd_-0" value="企业网关" style="rounded=1;whiteSpace=wrap;html=1;dashed=1;dashPattern=1 2;sketch=0;strokeColor=#36393d;fillColor=#FFCE9F;" vertex="1" parent="uoE901anN9h6SREGYmKl-1">
          
          <mxGeometry x="380" y="140" width="70" height="80" as="geometry" />
          
        </mxCell>
        
        <mxCell id="J6JQULIBf8OnE9_8mZd_-1" value="" style="endArrow=none;dashed=1;html=1;strokeColor=#006658;fillColor=#21C0A5;fontColor=#5C5C5C;" edge="1" parent="uoE901anN9h6SREGYmKl-1" target="J6JQULIBf8OnE9_8mZd_-0">
          
          <mxGeometry width="50" height="50" relative="1" as="geometry">
            
            <mxPoint x="413" y="400" as="sourcePoint" />
            
            <mxPoint x="412.76" y="110" as="targetPoint" />
            
          </mxGeometry>
          
        </mxCell>
        
        <mxCell id="J6JQULIBf8OnE9_8mZd_-2" value="交易网关" style="rounded=1;whiteSpace=wrap;html=1;dashed=1;dashPattern=1 2;sketch=0;strokeColor=#36393d;fillColor=#FFCE9F;" vertex="1" parent="uoE901anN9h6SREGYmKl-1">
          
          <mxGeometry x="380" y="240" width="70" height="160" as="geometry" />
          
        </mxCell>
        
      </root>
      
    </mxGraphModel>
    
  </diagram>
  <diagram id="vFI2MwlFAUL5GCR1YHoM" name="盘前初始化顺序图">
    
    <mxGraphModel dx="1038" dy="564" grid="1" gridSize="10" guides="1" tooltips="1" connect="1" arrows="1" fold="1" page="1" pageScale="1" pageWidth="827" pageHeight="1169" math="0" shadow="0">
      
      <root>
        
        <mxCell id="TDp3-CpvmxzPVj4K8CWJ-0" />
        
        <mxCell id="TDp3-CpvmxzPVj4K8CWJ-1" parent="TDp3-CpvmxzPVj4K8CWJ-0" />
        
        <mxCell id="VQFoLszqP5OfpJ6iraZA-0" value="&lt;span style=&quot;font-size: 14px&quot;&gt;&lt;b&gt;REITs交易服务&lt;/b&gt;&lt;/span&gt;" style="rounded=1;whiteSpace=wrap;html=1;fillColor=#d5e8d4;strokeColor=#82b366;gradientColor=#97d077;" vertex="1" parent="TDp3-CpvmxzPVj4K8CWJ-1">
          
          <mxGeometry x="80" y="40" width="130" height="60" as="geometry" />
          
        </mxCell>
        
        <mxCell id="VQFoLszqP5OfpJ6iraZA-2" value="&lt;span style=&quot;font-size: 14px&quot;&gt;&lt;b&gt;存储网关&lt;/b&gt;&lt;/span&gt;" style="rounded=1;whiteSpace=wrap;html=1;fillColor=#dae8fc;strokeColor=#6c8ebf;gradientColor=#7ea6e0;" vertex="1" parent="TDp3-CpvmxzPVj4K8CWJ-1">
          
          <mxGeometry x="480" y="40" width="176" height="60" as="geometry" />
          
        </mxCell>
        
        <mxCell id="VQFoLszqP5OfpJ6iraZA-3" value="" style="endArrow=none;dashed=1;html=1;strokeColor=#006658;fillColor=#21C0A5;fontColor=#5C5C5C;" edge="1" parent="TDp3-CpvmxzPVj4K8CWJ-1">
          
          <mxGeometry width="50" height="50" relative="1" as="geometry">
            
            <mxPoint x="560" y="400" as="sourcePoint" />
            
            <mxPoint x="560" y="100" as="targetPoint" />
            
          </mxGeometry>
          
        </mxCell>
        
        <mxCell id="VQFoLszqP5OfpJ6iraZA-5" value="" style="endArrow=none;dashed=1;html=1;strokeColor=#006658;fillColor=#21C0A5;fontColor=#5C5C5C;" edge="1" parent="TDp3-CpvmxzPVj4K8CWJ-1">
          
          <mxGeometry width="50" height="50" relative="1" as="geometry">
            
            <mxPoint x="135" y="400" as="sourcePoint" />
            
            <mxPoint x="134.5" y="100" as="targetPoint" />
            
          </mxGeometry>
          
        </mxCell>
        
        <mxCell id="VQFoLszqP5OfpJ6iraZA-25" value="&lt;font style=&quot;font-size: 14px&quot; color=&quot;#ff8000&quot;&gt;&lt;b&gt;盘前初始化顺序图&lt;/b&gt;&lt;/font&gt;" style="text;html=1;resizable=0;autosize=1;align=center;verticalAlign=middle;points=[];fillColor=none;strokeColor=none;rounded=0;dashed=1;dashPattern=1 2;sketch=0;fontColor=#5C5C5C;" vertex="1" parent="TDp3-CpvmxzPVj4K8CWJ-1">
          
          <mxGeometry x="290" y="10" width="130" height="20" as="geometry" />
          
        </mxCell>
        
        <mxCell id="VQFoLszqP5OfpJ6iraZA-31" value="" style="endArrow=classic;html=1;strokeColor=#006658;fillColor=#21C0A5;fontColor=#5C5C5C;" edge="1" parent="TDp3-CpvmxzPVj4K8CWJ-1">
          
          <mxGeometry width="50" height="50" relative="1" as="geometry">
            
            <mxPoint x="160" y="300" as="sourcePoint" />
            
            <mxPoint x="520" y="300" as="targetPoint" />
            
          </mxGeometry>
          
        </mxCell>
        
        <mxCell id="VQFoLszqP5OfpJ6iraZA-32" value="" style="endArrow=classic;html=1;strokeColor=#006658;fillColor=#21C0A5;fontColor=#5C5C5C;" edge="1" parent="TDp3-CpvmxzPVj4K8CWJ-1">
          
          <mxGeometry width="50" height="50" relative="1" as="geometry">
            
            <mxPoint x="160" y="160" as="sourcePoint" />
            
            <mxPoint x="520" y="160" as="targetPoint" />
            
          </mxGeometry>
          
        </mxCell>
        
        <mxCell id="VQFoLszqP5OfpJ6iraZA-33" value="获取网下投资者信息，基金产品信息" style="text;html=1;resizable=0;autosize=1;align=center;verticalAlign=middle;points=[];fillColor=none;strokeColor=none;rounded=0;dashed=1;dashPattern=1 2;sketch=0;fontColor=#5C5C5C;" vertex="1" parent="TDp3-CpvmxzPVj4K8CWJ-1">
          
          <mxGeometry x="195" y="130" width="210" height="20" as="geometry" />
          
        </mxCell>
        
        <mxCell id="VQFoLszqP5OfpJ6iraZA-34" value="" style="endArrow=classic;html=1;strokeColor=#006658;fillColor=#21C0A5;fontColor=#5C5C5C;fontStyle=1" edge="1" parent="TDp3-CpvmxzPVj4K8CWJ-1">
          
          <mxGeometry width="50" height="50" relative="1" as="geometry">
            
            <mxPoint x="520" y="320" as="sourcePoint" />
            
            <mxPoint x="160" y="320" as="targetPoint" />
            
          </mxGeometry>
          
        </mxCell>
        
        <mxCell id="VQFoLszqP5OfpJ6iraZA-35" value="" style="endArrow=classic;html=1;strokeColor=#006658;fillColor=#21C0A5;fontColor=#5C5C5C;" edge="1" parent="TDp3-CpvmxzPVj4K8CWJ-1">
          
          <mxGeometry width="50" height="50" relative="1" as="geometry">
            
            <mxPoint x="520" y="180" as="sourcePoint" />
            
            <mxPoint x="160" y="180" as="targetPoint" />
            
          </mxGeometry>
          
        </mxCell>
        
        <mxCell id="UzjjSIudh4hXr7zXAkHm-0" value="交易服务&lt;br&gt;处理" style="rounded=1;whiteSpace=wrap;html=1;dashed=1;dashPattern=1 2;sketch=0;strokeColor=#36393d;fillColor=#cce5ff;" vertex="1" parent="TDp3-CpvmxzPVj4K8CWJ-1">
          
          <mxGeometry x="100" y="190" width="70" height="80" as="geometry" />
          
        </mxCell>
        
        <mxCell id="UzjjSIudh4hXr7zXAkHm-1" value="发送交易处理结果" style="text;html=1;resizable=0;autosize=1;align=center;verticalAlign=middle;points=[];fillColor=none;strokeColor=none;rounded=0;dashed=1;dashPattern=1 2;sketch=0;fontColor=#5C5C5C;" vertex="1" parent="TDp3-CpvmxzPVj4K8CWJ-1">
          
          <mxGeometry x="254" y="280" width="110" height="20" as="geometry" />
          
        </mxCell>
        
      </root>
      
    </mxGraphModel>
    
  </diagram>
  <diagram id="FY9xbVxMkNVW0x6ldh-i" name="交易时序图">
    
    <mxGraphModel dx="1221" dy="664" grid="1" gridSize="10" guides="1" tooltips="1" connect="1" arrows="1" fold="1" page="1" pageScale="1" pageWidth="827" pageHeight="1169" math="0" shadow="0">
      
      <root>
        
        <mxCell id="D05Wb8F2t81YfudN2o28-0" />
        
        <mxCell id="D05Wb8F2t81YfudN2o28-1" parent="D05Wb8F2t81YfudN2o28-0" />
        
        <mxCell id="SmwKGBf0_cGSAJHCxtQt-0" value="&lt;span style=&quot;font-size: 14px&quot;&gt;&lt;b&gt;web,APP,H5&lt;br&gt;用户层&lt;/b&gt;&lt;/span&gt;" style="rounded=1;whiteSpace=wrap;html=1;fillColor=#cce5ff;strokeColor=#36393d;" vertex="1" parent="D05Wb8F2t81YfudN2o28-1">
          
          <mxGeometry x="20" y="40" width="130" height="60" as="geometry" />
          
        </mxCell>
        
        <mxCell id="SmwKGBf0_cGSAJHCxtQt-3" value="" style="endArrow=none;dashed=1;html=1;strokeColor=#006658;fillColor=#21C0A5;fontColor=#5C5C5C;entryX=0.463;entryY=1.021;entryDx=0;entryDy=0;entryPerimeter=0;exitX=0.56;exitY=-0.003;exitDx=0;exitDy=0;exitPerimeter=0;" edge="1" parent="D05Wb8F2t81YfudN2o28-1" source="Mz0F9c5K-hlnbzHUBwan-11" target="SmwKGBf0_cGSAJHCxtQt-0">
          
          <mxGeometry width="50" height="50" relative="1" as="geometry">
            
            <mxPoint x="80" y="400" as="sourcePoint" />
            
            <mxPoint x="85" y="100" as="targetPoint" />
            
          </mxGeometry>
          
        </mxCell>
        
        <mxCell id="SmwKGBf0_cGSAJHCxtQt-4" value="&lt;font style=&quot;font-size: 14px&quot; color=&quot;#ff8000&quot;&gt;&lt;b&gt;REITs交易时序图&lt;/b&gt;&lt;/font&gt;" style="text;html=1;resizable=0;autosize=1;align=center;verticalAlign=middle;points=[];fillColor=none;strokeColor=none;rounded=0;dashed=1;dashPattern=1 2;sketch=0;fontColor=#5C5C5C;" vertex="1" parent="D05Wb8F2t81YfudN2o28-1">
          
          <mxGeometry x="400" y="10" width="120" height="20" as="geometry" />
          
        </mxCell>
        
        <mxCell id="SmwKGBf0_cGSAJHCxtQt-12" value="&lt;span style=&quot;font-size: 14px&quot;&gt;&lt;b&gt;企业网关&lt;/b&gt;&lt;/span&gt;" style="rounded=1;whiteSpace=wrap;html=1;fillColor=#ffcc99;strokeColor=#36393d;" vertex="1" parent="D05Wb8F2t81YfudN2o28-1">
          
          <mxGeometry x="200" y="40" width="130" height="60" as="geometry" />
          
        </mxCell>
        
        <mxCell id="SmwKGBf0_cGSAJHCxtQt-13" value="&lt;span style=&quot;font-size: 14px&quot;&gt;&lt;b&gt;REITs服务&lt;/b&gt;&lt;/span&gt;" style="rounded=1;whiteSpace=wrap;html=1;fillColor=#cdeb8b;strokeColor=#36393d;" vertex="1" parent="D05Wb8F2t81YfudN2o28-1">
          
          <mxGeometry x="620" y="40" width="130" height="60" as="geometry" />
          
        </mxCell>
        
        <mxCell id="SmwKGBf0_cGSAJHCxtQt-14" value="&lt;span style=&quot;font-size: 14px&quot;&gt;&lt;b&gt;存储网关&lt;/b&gt;&lt;/span&gt;" style="rounded=1;whiteSpace=wrap;html=1;fillColor=#ffcccc;strokeColor=#36393d;" vertex="1" parent="D05Wb8F2t81YfudN2o28-1">
          
          <mxGeometry x="770" y="40.5" width="130" height="60" as="geometry" />
          
        </mxCell>
        
        <mxCell id="SmwKGBf0_cGSAJHCxtQt-15" value="" style="endArrow=none;dashed=1;html=1;strokeColor=#006658;fillColor=#21C0A5;fontColor=#5C5C5C;entryX=0.463;entryY=1.021;entryDx=0;entryDy=0;entryPerimeter=0;" edge="1" parent="D05Wb8F2t81YfudN2o28-1">
          
          <mxGeometry width="50" height="50" relative="1" as="geometry">
            
            <mxPoint x="265" y="520" as="sourcePoint" />
            
            <mxPoint x="264.7700000000001" y="99.99999999999999" as="targetPoint" />
            
          </mxGeometry>
          
        </mxCell>
        
        <mxCell id="SmwKGBf0_cGSAJHCxtQt-17" value="" style="endArrow=none;dashed=1;html=1;strokeColor=#006658;fillColor=#21C0A5;fontColor=#5C5C5C;entryX=0.546;entryY=1.008;entryDx=0;entryDy=0;fontStyle=1;entryPerimeter=0;" edge="1" parent="D05Wb8F2t81YfudN2o28-1" target="SmwKGBf0_cGSAJHCxtQt-14">
          
          <mxGeometry width="50" height="50" relative="1" as="geometry">
            
            <mxPoint x="841" y="519.5" as="sourcePoint" />
            
            <mxPoint x="640.1899999999999" y="220.5" as="targetPoint" />
            
          </mxGeometry>
          
        </mxCell>
        
        <mxCell id="Mz0F9c5K-hlnbzHUBwan-0" value="登录，鉴权请求逻辑" style="rounded=1;whiteSpace=wrap;html=1;dashed=1;dashPattern=1 2;sketch=0;strokeColor=#36393d;fillColor=#cce5ff;" vertex="1" parent="D05Wb8F2t81YfudN2o28-1">
          
          <mxGeometry x="40" y="120" width="70" height="80" as="geometry" />
          
        </mxCell>
        
        <mxCell id="Mz0F9c5K-hlnbzHUBwan-4" value="" style="endArrow=classic;html=1;strokeColor=#006658;fillColor=#21C0A5;fontColor=#5C5C5C;" edge="1" parent="D05Wb8F2t81YfudN2o28-1">
          
          <mxGeometry relative="1" as="geometry">
            
            <mxPoint x="280" y="140" as="sourcePoint" />
            
            <mxPoint x="280" y="170" as="targetPoint" />
            
            <Array as="points">
              
              <mxPoint x="330" y="140" />
              
            </Array>
            
          </mxGeometry>
          
        </mxCell>
        
        <mxCell id="Mz0F9c5K-hlnbzHUBwan-5" value="UUMS" style="shape=cloud;html=1;outlineConnect=0;" vertex="1" parent="Mz0F9c5K-hlnbzHUBwan-4">
          
          <mxGeometry width="100" height="50" relative="1" as="geometry">
            
            <mxPoint x="13.43" y="-22.060000000000002" as="offset" />
            
          </mxGeometry>
          
        </mxCell>
        
        <mxCell id="Mz0F9c5K-hlnbzHUBwan-6" value="" style="endArrow=classic;html=1;strokeColor=#006658;fillColor=#21C0A5;fontColor=#5C5C5C;" edge="1" parent="D05Wb8F2t81YfudN2o28-1">
          
          <mxGeometry width="50" height="50" relative="1" as="geometry">
            
            <mxPoint x="120" y="140" as="sourcePoint" />
            
            <mxPoint x="240" y="140" as="targetPoint" />
            
          </mxGeometry>
          
        </mxCell>
        
        <mxCell id="Mz0F9c5K-hlnbzHUBwan-8" value="请求&lt;br&gt;（HTTP/GRPC）" style="text;html=1;resizable=0;autosize=1;align=center;verticalAlign=middle;points=[];fillColor=none;strokeColor=none;rounded=0;dashed=1;dashPattern=1 2;sketch=0;fontColor=#5C5C5C;" vertex="1" parent="D05Wb8F2t81YfudN2o28-1">
          
          <mxGeometry x="115" y="115" width="110" height="30" as="geometry" />
          
        </mxCell>
        
        <mxCell id="Mz0F9c5K-hlnbzHUBwan-9" value="" style="endArrow=classic;html=1;strokeColor=#006658;fillColor=#21C0A5;fontColor=#5C5C5C;" edge="1" parent="D05Wb8F2t81YfudN2o28-1">
          
          <mxGeometry width="50" height="50" relative="1" as="geometry">
            
            <mxPoint x="240" y="170" as="sourcePoint" />
            
            <mxPoint x="120" y="170" as="targetPoint" />
            
          </mxGeometry>
          
        </mxCell>
        
        <mxCell id="Mz0F9c5K-hlnbzHUBwan-10" value="回复" style="text;html=1;resizable=0;autosize=1;align=center;verticalAlign=middle;points=[];fillColor=none;strokeColor=none;rounded=0;dashed=1;dashPattern=1 2;sketch=0;fontColor=#5C5C5C;" vertex="1" parent="D05Wb8F2t81YfudN2o28-1">
          
          <mxGeometry x="150" y="150" width="40" height="20" as="geometry" />
          
        </mxCell>
        
        <mxCell id="Mz0F9c5K-hlnbzHUBwan-11" value="其他&lt;br&gt;业务&lt;br&gt;请求" style="rounded=1;whiteSpace=wrap;html=1;dashed=1;dashPattern=1 2;sketch=0;strokeColor=#36393d;fillColor=#FFCE9F;" vertex="1" parent="D05Wb8F2t81YfudN2o28-1">
          
          <mxGeometry x="40" y="250" width="70" height="240" as="geometry" />
          
        </mxCell>
        
        <mxCell id="Mz0F9c5K-hlnbzHUBwan-12" value="" style="endArrow=none;dashed=1;html=1;strokeColor=#006658;fillColor=#21C0A5;fontColor=#5C5C5C;entryX=0.57;entryY=1.002;entryDx=0;entryDy=0;entryPerimeter=0;" edge="1" parent="D05Wb8F2t81YfudN2o28-1" target="Mz0F9c5K-hlnbzHUBwan-11">
          
          <mxGeometry width="50" height="50" relative="1" as="geometry">
            
            <mxPoint x="80" y="520" as="sourcePoint" />
            
            <mxPoint x="80.19000000000005" y="101.25999999999999" as="targetPoint" />
            
          </mxGeometry>
          
        </mxCell>
        
        <mxCell id="Mz0F9c5K-hlnbzHUBwan-13" value="" style="endArrow=classic;html=1;strokeColor=#006658;fillColor=#21C0A5;fontColor=#5C5C5C;entryX=0.003;entryY=0.41;entryDx=0;entryDy=0;entryPerimeter=0;" edge="1" parent="D05Wb8F2t81YfudN2o28-1" target="V5BTATYlOwf-6kE7986_-0">
          
          <mxGeometry width="50" height="50" relative="1" as="geometry">
            
            <mxPoint x="120" y="280" as="sourcePoint" />
            
            <mxPoint x="230" y="280" as="targetPoint" />
            
          </mxGeometry>
          
        </mxCell>
        
        <mxCell id="V5BTATYlOwf-6kE7986_-0" value="企业网关" style="rounded=1;whiteSpace=wrap;html=1;dashed=1;dashPattern=1 2;sketch=0;strokeColor=#36393d;fillColor=#FFE599;" vertex="1" parent="D05Wb8F2t81YfudN2o28-1">
          
          <mxGeometry x="230" y="220" width="70" height="110" as="geometry" />
          
        </mxCell>
        
        <mxCell id="Hj9Bg9ZQa4Nq3dhkPnx6-0" value="基金管理人提起发售申请" style="text;html=1;resizable=0;autosize=1;align=center;verticalAlign=middle;points=[];fillColor=none;strokeColor=none;rounded=0;dashed=1;dashPattern=1 2;sketch=0;fontColor=#5C5C5C;" vertex="1" parent="D05Wb8F2t81YfudN2o28-1">
          
          <mxGeometry x="95" y="250" width="150" height="20" as="geometry" />
          
        </mxCell>
        
        <mxCell id="ysbnrTQ1LI__y1A5z7Zv-0" value="同时提交电子材料等" style="text;html=1;resizable=0;autosize=1;align=center;verticalAlign=middle;points=[];fillColor=none;strokeColor=none;rounded=0;dashed=1;dashPattern=1 2;sketch=0;fontColor=#5C5C5C;" vertex="1" parent="D05Wb8F2t81YfudN2o28-1">
          
          <mxGeometry x="110" y="270" width="120" height="20" as="geometry" />
          
        </mxCell>
        
        <mxCell id="29PxDpaAkReOb14AUfd3-1" value="" style="endArrow=classic;html=1;strokeColor=#006658;fillColor=#21C0A5;fontColor=#5C5C5C;" edge="1" parent="D05Wb8F2t81YfudN2o28-1">
          
          <mxGeometry relative="1" as="geometry">
            
            <mxPoint x="310" y="240" as="sourcePoint" />
            
            <mxPoint x="310" y="290" as="targetPoint" />
            
            <Array as="points">
              
              <mxPoint x="360" y="240" />
              
            </Array>
            
          </mxGeometry>
          
        </mxCell>
        
        <mxCell id="29PxDpaAkReOb14AUfd3-2" value="业管平台" style="shape=cloud;html=1;outlineConnect=0;" vertex="1" parent="29PxDpaAkReOb14AUfd3-1">
          
          <mxGeometry width="90" height="60" relative="1" as="geometry">
            
            <mxPoint x="7.080000000000005" y="-32.08" as="offset" />
            
          </mxGeometry>
          
        </mxCell>
        
        <mxCell id="29PxDpaAkReOb14AUfd3-3" value="交易网关" style="rounded=1;whiteSpace=wrap;html=1;dashed=1;dashPattern=1 2;sketch=0;strokeColor=#36393d;fillColor=#ffff88;" vertex="1" parent="D05Wb8F2t81YfudN2o28-1">
          
          <mxGeometry x="430" y="325" width="70" height="140" as="geometry" />
          
        </mxCell>
        
        <mxCell id="BMFiHvQo9f3s-RPztHZM-0" value="" style="endArrow=classic;html=1;strokeColor=#006658;fillColor=#21C0A5;fontColor=#5C5C5C;" edge="1" parent="D05Wb8F2t81YfudN2o28-1">
          
          <mxGeometry width="50" height="50" relative="1" as="geometry">
            
            <mxPoint x="120" y="380" as="sourcePoint" />
            
            <mxPoint x="420" y="380" as="targetPoint" />
            
          </mxGeometry>
          
        </mxCell>
        
        <mxCell id="BMFiHvQo9f3s-RPztHZM-1" value="HTTP/GRPC请求" style="text;html=1;resizable=0;autosize=1;align=center;verticalAlign=middle;points=[];fillColor=none;strokeColor=none;rounded=0;dashed=1;dashPattern=1 2;sketch=0;fontColor=#5C5C5C;" vertex="1" parent="D05Wb8F2t81YfudN2o28-1">
          
          <mxGeometry x="270" y="360" width="110" height="20" as="geometry" />
          
        </mxCell>
        
        <mxCell id="cmVabmJXJD1tQyqMOPza-0" value="" style="endArrow=classic;html=1;strokeColor=#006658;fillColor=#21C0A5;fontColor=#5C5C5C;" edge="1" parent="D05Wb8F2t81YfudN2o28-1">
          
          <mxGeometry width="50" height="50" relative="1" as="geometry">
            
            <mxPoint x="420" y="400" as="sourcePoint" />
            
            <mxPoint x="110.00000000000011" y="400" as="targetPoint" />
            
          </mxGeometry>
          
        </mxCell>
        
        <mxCell id="cmVabmJXJD1tQyqMOPza-1" value="" style="endArrow=classic;html=1;strokeColor=#006658;fillColor=#21C0A5;fontColor=#5C5C5C;" edge="1" parent="D05Wb8F2t81YfudN2o28-1">
          
          <mxGeometry width="50" height="50" relative="1" as="geometry">
            
            <mxPoint x="505.0000000000001" y="335" as="sourcePoint" />
            
            <mxPoint x="660" y="290" as="targetPoint" />
            
          </mxGeometry>
          
        </mxCell>
        
        <mxCell id="cmVabmJXJD1tQyqMOPza-2" value="发起询价&lt;br&gt;(HTTP/GRPC)" style="text;html=1;resizable=0;autosize=1;align=center;verticalAlign=middle;points=[];fillColor=none;strokeColor=none;rounded=0;dashed=1;dashPattern=1 2;sketch=0;fontColor=#5C5C5C;" vertex="1" parent="D05Wb8F2t81YfudN2o28-1">
          
          <mxGeometry x="540" y="280" width="90" height="30" as="geometry" />
          
        </mxCell>
        
        <mxCell id="cmVabmJXJD1tQyqMOPza-3" value="" style="endArrow=classic;html=1;strokeColor=#006658;fillColor=#21C0A5;fontColor=#5C5C5C;" edge="1" parent="D05Wb8F2t81YfudN2o28-1">
          
          <mxGeometry width="50" height="50" relative="1" as="geometry">
            
            <mxPoint x="705" y="210.31" as="sourcePoint" />
            
            <mxPoint x="835" y="210" as="targetPoint" />
            
          </mxGeometry>
          
        </mxCell>
        
        <mxCell id="cmVabmJXJD1tQyqMOPza-4" value="获取网下投资者&lt;br&gt;(HTTP/FTP)" style="text;html=1;resizable=0;autosize=1;align=center;verticalAlign=middle;points=[];fillColor=none;strokeColor=none;rounded=0;dashed=1;dashPattern=1 2;sketch=0;fontColor=#5C5C5C;" vertex="1" parent="D05Wb8F2t81YfudN2o28-1">
          
          <mxGeometry x="720" y="170" width="100" height="30" as="geometry" />
          
        </mxCell>
        
        <mxCell id="cmVabmJXJD1tQyqMOPza-6" value="" style="endArrow=classic;html=1;strokeColor=#006658;fillColor=#21C0A5;fontColor=#5C5C5C;" edge="1" parent="D05Wb8F2t81YfudN2o28-1">
          
          <mxGeometry width="50" height="50" relative="1" as="geometry">
            
            <mxPoint x="835" y="220" as="sourcePoint" />
            
            <mxPoint x="705" y="220.31" as="targetPoint" />
            
          </mxGeometry>
          
        </mxCell>
        
        <mxCell id="cmVabmJXJD1tQyqMOPza-7" value="获取基金信息" style="text;html=1;resizable=0;autosize=1;align=center;verticalAlign=middle;points=[];fillColor=none;strokeColor=none;rounded=0;dashed=1;dashPattern=1 2;sketch=0;fontColor=#5C5C5C;" vertex="1" parent="D05Wb8F2t81YfudN2o28-1">
          
          <mxGeometry x="720" y="220" width="90" height="20" as="geometry" />
          
        </mxCell>
        
        <mxCell id="cmVabmJXJD1tQyqMOPza-8" value="" style="endArrow=classic;html=1;strokeColor=#006658;fillColor=#21C0A5;fontColor=#5C5C5C;" edge="1" parent="D05Wb8F2t81YfudN2o28-1">
          
          <mxGeometry width="50" height="50" relative="1" as="geometry">
            
            <mxPoint x="835" y="249.31" as="sourcePoint" />
            
            <mxPoint x="705" y="249.62" as="targetPoint" />
            
          </mxGeometry>
          
        </mxCell>
        
        <mxCell id="cmVabmJXJD1tQyqMOPza-9" value="" style="endArrow=classic;html=1;strokeColor=#006658;fillColor=#21C0A5;fontColor=#5C5C5C;" edge="1" parent="D05Wb8F2t81YfudN2o28-1">
          
          <mxGeometry width="50" height="50" relative="1" as="geometry">
            
            <mxPoint x="700" y="239.97" as="sourcePoint" />
            
            <mxPoint x="830" y="239.65999999999994" as="targetPoint" />
            
          </mxGeometry>
          
        </mxCell>
        
        <mxCell id="cmVabmJXJD1tQyqMOPza-13" value="响应" style="text;html=1;resizable=0;autosize=1;align=center;verticalAlign=middle;points=[];fillColor=none;strokeColor=none;rounded=0;dashed=1;dashPattern=1 2;sketch=0;fontColor=#5C5C5C;" vertex="1" parent="D05Wb8F2t81YfudN2o28-1">
          
          <mxGeometry x="550" y="330" width="40" height="20" as="geometry" />
          
        </mxCell>
        
        <mxCell id="cmVabmJXJD1tQyqMOPza-14" value="响应" style="text;html=1;resizable=0;autosize=1;align=center;verticalAlign=middle;points=[];fillColor=none;strokeColor=none;rounded=0;dashed=1;dashPattern=1 2;sketch=0;fontColor=#5C5C5C;" vertex="1" parent="D05Wb8F2t81YfudN2o28-1">
          
          <mxGeometry x="300" y="400" width="40" height="20" as="geometry" />
          
        </mxCell>
        
        <mxCell id="cmVabmJXJD1tQyqMOPza-15" value="" style="endArrow=classic;html=1;strokeColor=#006658;fillColor=#21C0A5;fontColor=#5C5C5C;" edge="1" parent="D05Wb8F2t81YfudN2o28-1">
          
          <mxGeometry width="50" height="50" relative="1" as="geometry">
            
            <mxPoint x="510" y="385" as="sourcePoint" />
            
            <mxPoint x="660" y="360" as="targetPoint" />
            
          </mxGeometry>
          
        </mxCell>
        
        <mxCell id="cmVabmJXJD1tQyqMOPza-16" value="" style="endArrow=classic;html=1;strokeColor=#006658;fillColor=#21C0A5;fontColor=#5C5C5C;" edge="1" parent="D05Wb8F2t81YfudN2o28-1">
          
          <mxGeometry width="50" height="50" relative="1" as="geometry">
            
            <mxPoint x="650" y="370" as="sourcePoint" />
            
            <mxPoint x="505" y="394.71" as="targetPoint" />
            
          </mxGeometry>
          
        </mxCell>
        
        <mxCell id="cmVabmJXJD1tQyqMOPza-17" value="发起认购(HTTP/GRPC)" style="text;html=1;resizable=0;autosize=1;align=center;verticalAlign=middle;points=[];fillColor=none;strokeColor=none;rounded=0;dashed=1;dashPattern=1 2;sketch=0;fontColor=#5C5C5C;" vertex="1" parent="D05Wb8F2t81YfudN2o28-1">
          
          <mxGeometry x="510" y="350" width="140" height="20" as="geometry" />
          
        </mxCell>
        
        <mxCell id="cmVabmJXJD1tQyqMOPza-19" value="" style="endArrow=classic;html=1;strokeColor=#006658;fillColor=#21C0A5;fontColor=#5C5C5C;" edge="1" parent="D05Wb8F2t81YfudN2o28-1">
          
          <mxGeometry width="50" height="50" relative="1" as="geometry">
            
            <mxPoint x="645" y="425.5" as="sourcePoint" />
            
            <mxPoint x="645" y="425.5" as="targetPoint" />
            
          </mxGeometry>
          
        </mxCell>
        
        <mxCell id="cmVabmJXJD1tQyqMOPza-20" value="" style="endArrow=classic;html=1;strokeColor=#006658;fillColor=#21C0A5;fontColor=#5C5C5C;" edge="1" parent="D05Wb8F2t81YfudN2o28-1">
          
          <mxGeometry width="50" height="50" relative="1" as="geometry">
            
            <mxPoint x="660" y="410" as="sourcePoint" />
            
            <mxPoint x="505" y="435.00000000000006" as="targetPoint" />
            
          </mxGeometry>
          
        </mxCell>
        
        <mxCell id="cmVabmJXJD1tQyqMOPza-23" value="" style="endArrow=classic;html=1;strokeColor=#006658;fillColor=#21C0A5;fontColor=#5C5C5C;" edge="1" parent="D05Wb8F2t81YfudN2o28-1">
          
          <mxGeometry width="50" height="50" relative="1" as="geometry">
            
            <mxPoint x="710" y="415.38999999999993" as="sourcePoint" />
            
            <mxPoint x="840" y="415.08" as="targetPoint" />
            
          </mxGeometry>
          
        </mxCell>
        
        <mxCell id="cmVabmJXJD1tQyqMOPza-24" value="提交询价，发售公告等&lt;br&gt;(HTTP/FTP)" style="text;html=1;resizable=0;autosize=1;align=center;verticalAlign=middle;points=[];fillColor=none;strokeColor=none;rounded=0;dashed=1;dashPattern=1 2;sketch=0;fontColor=#5C5C5C;" vertex="1" parent="D05Wb8F2t81YfudN2o28-1">
          
          <mxGeometry x="700" y="380.5" width="140" height="30" as="geometry" />
          
        </mxCell>
        
        <mxCell id="cmVabmJXJD1tQyqMOPza-25" value="" style="endArrow=classic;html=1;strokeColor=#006658;fillColor=#21C0A5;fontColor=#5C5C5C;" edge="1" parent="D05Wb8F2t81YfudN2o28-1">
          
          <mxGeometry width="50" height="50" relative="1" as="geometry">
            
            <mxPoint x="510" y="455.33" as="sourcePoint" />
            
            <mxPoint x="660" y="465" as="targetPoint" />
            
          </mxGeometry>
          
        </mxCell>
        
        <mxCell id="cmVabmJXJD1tQyqMOPza-26" value="" style="endArrow=classic;html=1;strokeColor=#006658;fillColor=#21C0A5;fontColor=#5C5C5C;entryX=1;entryY=1;entryDx=0;entryDy=0;" edge="1" parent="D05Wb8F2t81YfudN2o28-1" target="29PxDpaAkReOb14AUfd3-3">
          
          <mxGeometry width="50" height="50" relative="1" as="geometry">
            
            <mxPoint x="660" y="475" as="sourcePoint" />
            
            <mxPoint x="500" y="475" as="targetPoint" />
            
          </mxGeometry>
          
        </mxCell>
        
        <mxCell id="cmVabmJXJD1tQyqMOPza-27" value="业务查询(HTTP/GRPC)" style="text;html=1;resizable=0;autosize=1;align=center;verticalAlign=middle;points=[];fillColor=none;strokeColor=none;rounded=0;dashed=1;dashPattern=1 2;sketch=0;fontColor=#5C5C5C;" vertex="1" parent="D05Wb8F2t81YfudN2o28-1">
          
          <mxGeometry x="515" y="440" width="140" height="20" as="geometry" />
          
        </mxCell>
        
        <mxCell id="CSkUjEF7AHH6_wzCPyhA-2" value="" style="endArrow=classic;html=1;strokeColor=#006658;fillColor=#21C0A5;fontColor=#5C5C5C;exitX=0.973;exitY=1.083;exitDx=0;exitDy=0;exitPerimeter=0;" edge="1" parent="D05Wb8F2t81YfudN2o28-1" source="ysbnrTQ1LI__y1A5z7Zv-0">
          
          <mxGeometry width="50" height="50" relative="1" as="geometry">
            
            <mxPoint x="220.0000000000001" y="300" as="sourcePoint" />
            
            <mxPoint x="110" y="310" as="targetPoint" />
            
          </mxGeometry>
          
        </mxCell>
        
        <mxCell id="cmVabmJXJD1tQyqMOPza-11" value="" style="rounded=1;whiteSpace=wrap;html=1;dashed=1;dashPattern=1 2;sketch=0;strokeColor=#36393d;fillColor=#cdeb8b;" vertex="1" parent="D05Wb8F2t81YfudN2o28-1">
          
          <mxGeometry x="670" y="180.5" width="30" height="320" as="geometry" />
          
        </mxCell>
        
        <mxCell id="SDvASF8uKNV8ohtg_sZi-1" value="" style="endArrow=none;dashed=1;html=1;strokeColor=#006658;fillColor=#21C0A5;fontColor=#5C5C5C;fontStyle=1;entryX=0.5;entryY=1;entryDx=0;entryDy=0;" edge="1" parent="D05Wb8F2t81YfudN2o28-1" target="SmwKGBf0_cGSAJHCxtQt-13">
          
          <mxGeometry width="50" height="50" relative="1" as="geometry">
            
            <mxPoint x="685" y="519.5" as="sourcePoint" />
            
            <mxPoint x="680" y="100.50000000000001" as="targetPoint" />
            
          </mxGeometry>
          
        </mxCell>
        
        <mxCell id="cmVabmJXJD1tQyqMOPza-21" value="询价后中止发行&lt;br&gt;(HTTP/GRPC)" style="text;html=1;resizable=0;autosize=1;align=center;verticalAlign=middle;points=[];fillColor=none;strokeColor=none;rounded=0;dashed=1;dashPattern=1 2;sketch=0;fontColor=#5C5C5C;" vertex="1" parent="D05Wb8F2t81YfudN2o28-1">
          
          <mxGeometry x="530" y="390" width="100" height="30" as="geometry" />
          
        </mxCell>
        
        <mxCell id="SDvASF8uKNV8ohtg_sZi-3" value="" style="endArrow=classic;html=1;strokeColor=#006658;fillColor=#21C0A5;fontColor=#5C5C5C;" edge="1" parent="D05Wb8F2t81YfudN2o28-1">
          
          <mxGeometry width="50" height="50" relative="1" as="geometry">
            
            <mxPoint x="505" y="425" as="sourcePoint" />
            
            <mxPoint x="650" y="400" as="targetPoint" />
            
          </mxGeometry>
          
        </mxCell>
        
        <mxCell id="SDvASF8uKNV8ohtg_sZi-6" value="" style="endArrow=none;dashed=1;html=1;strokeColor=#006658;fillColor=#21C0A5;fontColor=#5C5C5C;entryX=0.546;entryY=1.008;entryDx=0;entryDy=0;fontStyle=1;entryPerimeter=0;" edge="1" parent="D05Wb8F2t81YfudN2o28-1">
          
          <mxGeometry width="50" height="50" relative="1" as="geometry">
            
            <mxPoint x="464.52" y="518.52" as="sourcePoint" />
            
            <mxPoint x="464.5" y="100.00000000000001" as="targetPoint" />
            
          </mxGeometry>
          
        </mxCell>
        
        <mxCell id="SDvASF8uKNV8ohtg_sZi-7" value="（HTTP）" style="text;html=1;resizable=0;autosize=1;align=center;verticalAlign=middle;points=[];fillColor=none;strokeColor=none;rounded=0;dashed=1;dashPattern=1 2;sketch=0;fontColor=#5C5C5C;" vertex="1" parent="D05Wb8F2t81YfudN2o28-1">
          
          <mxGeometry x="130" y="230" width="70" height="20" as="geometry" />
          
        </mxCell>
        
        <mxCell id="SDvASF8uKNV8ohtg_sZi-9" value="" style="endArrow=classic;html=1;strokeColor=#006658;fillColor=#21C0A5;fontColor=#5C5C5C;" edge="1" parent="D05Wb8F2t81YfudN2o28-1">
          
          <mxGeometry width="50" height="50" relative="1" as="geometry">
            
            <mxPoint x="660" y="300" as="sourcePoint" />
            
            <mxPoint x="510" y="345" as="targetPoint" />
            
          </mxGeometry>
          
        </mxCell>
        
        <mxCell id="SDvASF8uKNV8ohtg_sZi-10" value="&lt;span style=&quot;font-size: 14px&quot;&gt;&lt;b&gt;交易网关&lt;/b&gt;&lt;/span&gt;" style="rounded=1;whiteSpace=wrap;html=1;fillColor=#ffcc99;strokeColor=#36393d;" vertex="1" parent="D05Wb8F2t81YfudN2o28-1">
          
          <mxGeometry x="400" y="40" width="130" height="60" as="geometry" />
          
        </mxCell>
        
      </root>
      
    </mxGraphModel>
    
  </diagram>
  <diagram id="aC8FgZUDFQvprZJkPxN_" name="第 6 页">
    
    <mxGraphModel dx="1038" dy="564" grid="1" gridSize="10" guides="1" tooltips="1" connect="1" arrows="1" fold="1" page="1" pageScale="1" pageWidth="827" pageHeight="1169" math="0" shadow="0">
      
      <root>
        
        <mxCell id="xH8khUnAr_cCxIXY6G8t-0" />
        
        <mxCell id="xH8khUnAr_cCxIXY6G8t-1" parent="xH8khUnAr_cCxIXY6G8t-0" />
        
      </root>
      
    </mxGraphModel>
    
  </diagram>
</mxfile>
